<svg xmlns="http://www.w3.org/2000/svg" xmlns:xlink="http://www.w3.org/1999/xlink" zoomAndPan="magnify" preserveAspectRatio="xMidYMid meet" version="1.0" viewBox="1.94 132.24 369.89 116.41"><defs><clipPath id="id1"><path d="M 1.960938 132.242188 L 81.558594 132.242188 L 81.558594 242.492188 L 1.960938 242.492188 Z M 1.960938 132.242188 " clip-rule="nonzero"/></clipPath><clipPath id="id2"><path d="M 19.699219 182.476562 L 63.800781 182.476562 L 63.800781 226.578125 L 19.699219 226.578125 Z M 19.699219 182.476562 " clip-rule="nonzero"/></clipPath><clipPath id="id3"><path d="M 25.019531 187.796875 L 58.535156 187.796875 L 58.535156 221.3125 L 25.019531 221.3125 Z M 25.019531 187.796875 " clip-rule="nonzero"/></clipPath></defs><path fill="rgb(16.079712%, 50.19989%, 72.549438%)" d="M 138.386719 154.226562 L 138.386719 207.898438 C 138.386719 208.566406 138.414062 209.390625 138.476562 210.386719 C 138.546875 211.378906 138.726562 212.359375 139.023438 213.324219 C 139.324219 214.28125 139.765625 215.105469 140.363281 215.796875 C 140.964844 216.492188 141.796875 216.839844 142.859375 216.839844 C 146.105469 216.839844 148.492188 213.226562 150.019531 206.003906 L 153.695312 206.003906 C 152.960938 210.183594 152.03125 213.480469 150.90625 215.902344 C 149.78125 218.316406 148.585938 220.152344 147.324219 221.417969 C 146.066406 222.675781 144.773438 223.484375 143.449219 223.84375 C 142.125 224.214844 140.933594 224.398438 139.878906 224.398438 C 138.351562 224.398438 137.039062 224.132812 135.945312 223.601562 C 134.859375 223.070312 133.933594 222.375 133.171875 221.519531 C 132.40625 220.660156 131.796875 219.664062 131.332031 218.539062 C 130.871094 217.40625 130.503906 216.210938 130.234375 214.953125 C 129.238281 217.539062 127.632812 219.757812 125.414062 221.613281 C 123.191406 223.472656 120.492188 224.398438 117.320312 224.398438 C 115.332031 224.398438 113.324219 224 111.304688 223.210938 C 109.285156 222.410156 107.460938 221.097656 105.835938 219.277344 C 104.210938 217.460938 102.882812 215.109375 101.859375 212.226562 C 100.832031 209.34375 100.320312 205.8125 100.320312 201.632812 C 100.320312 198.589844 100.667969 195.410156 101.363281 192.09375 C 102.0625 188.78125 103.171875 185.765625 104.691406 183.050781 C 106.21875 180.339844 108.171875 178.089844 110.554688 176.300781 C 112.941406 174.511719 115.828125 173.617188 119.203125 173.617188 C 119.996094 173.617188 120.839844 173.699219 121.734375 173.859375 C 122.628906 174.023438 123.488281 174.304688 124.3125 174.703125 C 125.148438 175.105469 125.925781 175.652344 126.648438 176.347656 C 127.382812 177.039062 127.980469 177.882812 128.441406 178.878906 L 128.441406 155.625 Z M 119.804688 216.839844 C 120.800781 216.839844 121.808594 216.558594 122.835938 215.992188 C 123.859375 215.433594 124.78125 214.671875 125.609375 213.714844 C 126.441406 212.753906 127.117188 211.609375 127.644531 210.28125 C 128.175781 208.957031 128.441406 207.53125 128.441406 206.003906 L 128.441406 183.351562 C 127.980469 182.289062 127.265625 181.3125 126.304688 180.417969 C 125.347656 179.523438 124.105469 179.074219 122.578125 179.074219 C 120.457031 179.074219 118.636719 179.789062 117.109375 181.214844 C 115.589844 182.640625 114.363281 184.433594 113.433594 186.589844 C 112.507812 188.742188 111.828125 191.09375 111.398438 193.644531 C 110.972656 196.1875 110.761719 198.621094 110.761719 200.941406 C 110.761719 206.636719 111.539062 210.710938 113.085938 213.160156 C 114.640625 215.613281 116.882812 216.839844 119.804688 216.839844 Z M 119.804688 216.839844 " fill-opacity="1" fill-rule="nonzero"/><path fill="rgb(16.079712%, 50.19989%, 72.549438%)" d="M 159.851562 174.101562 L 159.851562 182.453125 C 160.644531 181.265625 161.425781 180.144531 162.1875 179.085938 C 162.949219 178.023438 163.792969 177.09375 164.71875 176.300781 C 165.644531 175.5 166.667969 174.851562 167.796875 174.359375 C 168.929688 173.867188 170.1875 173.617188 171.574219 173.617188 C 173.824219 173.617188 175.476562 174.195312 176.535156 175.351562 C 177.601562 176.507812 178.132812 177.914062 178.132812 179.570312 C 178.132812 180.566406 177.964844 181.394531 177.632812 182.058594 C 177.300781 182.722656 176.90625 183.253906 176.445312 183.652344 C 175.980469 184.046875 175.484375 184.332031 174.953125 184.496094 C 174.425781 184.660156 173.964844 184.742188 173.566406 184.742188 C 172.96875 184.742188 172.488281 184.609375 172.121094 184.347656 C 171.753906 184.078125 171.394531 183.796875 171.03125 183.503906 C 170.667969 183.203125 170.253906 182.921875 169.785156 182.660156 C 169.320312 182.390625 168.726562 182.253906 168.003906 182.253906 C 166.476562 182.253906 165.015625 182.785156 163.621094 183.851562 C 162.234375 184.910156 160.976562 186.03125 159.851562 187.226562 L 159.851562 223.796875 L 149.90625 223.796875 L 149.90625 174.101562 Z M 159.851562 174.101562 " fill-opacity="1" fill-rule="nonzero"/><path fill="rgb(16.079712%, 50.19989%, 72.549438%)" d="M 193.335938 174.101562 L 193.335938 207.898438 C 193.335938 208.566406 193.371094 209.390625 193.4375 210.386719 C 193.507812 211.378906 193.6875 212.359375 193.984375 213.324219 C 194.285156 214.28125 194.726562 215.105469 195.324219 215.796875 C 195.925781 216.492188 196.75 216.839844 197.808594 216.839844 C 201.054688 216.839844 203.441406 213.226562 204.96875 206.003906 L 208.644531 206.003906 C 207.917969 210.183594 206.992188 213.480469 205.855469 215.902344 C 204.730469 218.316406 203.539062 220.152344 202.285156 221.417969 C 201.027344 222.675781 199.734375 223.484375 198.410156 223.84375 C 197.085938 224.214844 195.890625 224.398438 194.828125 224.398438 C 192.515625 224.398438 190.625 223.953125 189.160156 223.058594 C 187.703125 222.164062 186.542969 221.023438 185.679688 219.636719 C 184.824219 218.242188 184.230469 216.683594 183.898438 214.964844 C 183.566406 213.238281 183.402344 211.578125 183.402344 209.980469 L 183.402344 174.101562 Z M 181.609375 159.800781 C 181.609375 158.015625 182.238281 156.457031 183.496094 155.128906 C 184.757812 153.804688 186.320312 153.140625 188.179688 153.140625 C 189.964844 153.140625 191.519531 153.804688 192.839844 155.128906 C 194.160156 156.457031 194.828125 158.015625 194.828125 159.800781 C 194.828125 161.648438 194.160156 163.207031 192.839844 164.472656 C 191.519531 165.730469 189.964844 166.355469 188.179688 166.355469 C 186.320312 166.355469 184.757812 165.730469 183.496094 164.472656 C 182.238281 163.207031 181.609375 161.648438 181.609375 159.800781 Z M 181.609375 159.800781 " fill-opacity="1" fill-rule="nonzero"/><path fill="rgb(16.079712%, 50.19989%, 72.549438%)" d="M 214.898438 170.425781 L 214.898438 178.082031 C 216.164062 176.757812 217.640625 175.679688 219.328125 174.855469 C 221.015625 174.03125 222.984375 173.617188 225.238281 173.617188 C 227.554688 173.617188 229.710938 174.113281 231.699219 175.109375 C 233.6875 176.097656 235.425781 177.605469 236.914062 179.628906 C 238.410156 181.652344 239.585938 184.203125 240.441406 187.285156 C 241.304688 190.359375 241.738281 194.019531 241.738281 198.257812 C 241.738281 206.535156 240.179688 212.964844 237.066406 217.542969 C 233.949219 222.117188 229.808594 224.398438 224.648438 224.398438 C 222.457031 224.398438 220.582031 223.988281 219.027344 223.164062 C 217.46875 222.332031 216.09375 221.152344 214.898438 219.625 L 214.898438 246.160156 L 204.863281 248.648438 L 204.863281 170.425781 Z M 221.769531 180.070312 C 220.304688 180.070312 218.992188 180.484375 217.835938 181.316406 C 216.679688 182.144531 215.699219 183.320312 214.898438 184.84375 L 214.898438 214.652344 C 215.832031 215.847656 216.878906 216.710938 218.035156 217.242188 C 219.195312 217.769531 220.339844 218.027344 221.46875 218.027344 C 223.125 218.027344 224.582031 217.503906 225.839844 216.445312 C 227.09375 215.382812 228.167969 213.941406 229.0625 212.121094 C 229.957031 210.300781 230.636719 208.167969 231.097656 205.714844 C 231.566406 203.265625 231.804688 200.648438 231.804688 197.863281 C 231.804688 194.417969 231.488281 191.558594 230.855469 189.273438 C 230.222656 186.984375 229.410156 185.164062 228.417969 183.804688 C 227.421875 182.441406 226.328125 181.476562 225.132812 180.914062 C 223.945312 180.351562 222.824219 180.070312 221.769531 180.070312 Z M 221.769531 180.070312 " fill-opacity="1" fill-rule="nonzero"/><path fill="rgb(16.079712%, 50.19989%, 72.549438%)" d="M 256.9375 170.425781 L 256.9375 178.082031 C 258.199219 176.757812 259.675781 175.679688 261.363281 174.855469 C 263.054688 174.03125 265.023438 173.617188 267.273438 173.617188 C 269.59375 173.617188 271.75 174.113281 273.738281 175.109375 C 275.726562 176.097656 277.464844 177.605469 278.953125 179.628906 C 280.445312 181.652344 281.621094 184.203125 282.476562 187.285156 C 283.339844 190.359375 283.773438 194.019531 283.773438 198.257812 C 283.773438 206.535156 282.214844 212.964844 279.101562 217.542969 C 275.984375 222.117188 271.847656 224.398438 266.683594 224.398438 C 264.492188 224.398438 262.621094 223.988281 261.066406 223.164062 C 259.507812 222.332031 258.128906 221.152344 256.9375 219.625 L 256.9375 246.160156 L 246.902344 248.648438 L 246.902344 170.425781 Z M 263.804688 180.070312 C 262.339844 180.070312 261.03125 180.484375 259.875 181.316406 C 258.71875 182.144531 257.738281 183.320312 256.9375 184.84375 L 256.9375 214.652344 C 257.867188 215.847656 258.914062 216.710938 260.070312 217.242188 C 261.230469 217.769531 262.375 218.027344 263.503906 218.027344 C 265.160156 218.027344 266.617188 217.503906 267.875 216.445312 C 269.128906 215.382812 270.203125 213.941406 271.101562 212.121094 C 271.992188 210.300781 272.671875 208.167969 273.136719 205.714844 C 273.605469 203.265625 273.839844 200.648438 273.839844 197.863281 C 273.839844 194.417969 273.523438 191.558594 272.894531 189.273438 C 272.261719 186.984375 271.449219 185.164062 270.453125 183.804688 C 269.457031 182.441406 268.363281 181.476562 267.167969 180.914062 C 265.980469 180.351562 264.859375 180.070312 263.804688 180.070312 Z M 263.804688 180.070312 " fill-opacity="1" fill-rule="nonzero"/><path fill="rgb(16.079712%, 50.19989%, 72.549438%)" d="M 298.972656 154.226562 L 298.972656 207.898438 C 298.972656 208.566406 299.007812 209.390625 299.078125 210.386719 C 299.148438 211.378906 299.324219 212.359375 299.621094 213.324219 C 299.921875 214.28125 300.367188 215.105469 300.960938 215.796875 C 301.5625 216.492188 302.390625 216.839844 303.449219 216.839844 C 306.691406 216.839844 309.078125 213.226562 310.605469 206.003906 L 314.28125 206.003906 C 313.554688 210.183594 312.628906 213.480469 311.496094 215.902344 C 310.367188 218.316406 309.175781 220.152344 307.921875 221.417969 C 306.664062 222.675781 305.371094 223.484375 304.050781 223.84375 C 302.722656 224.214844 301.527344 224.398438 300.464844 224.398438 C 298.152344 224.398438 296.261719 223.953125 294.800781 223.058594 C 293.34375 222.164062 292.179688 221.023438 291.320312 219.636719 C 290.464844 218.242188 289.867188 216.683594 289.539062 214.964844 C 289.207031 213.238281 289.039062 211.578125 289.039062 209.980469 L 289.039062 155.625 Z M 298.972656 154.226562 " fill-opacity="1" fill-rule="nonzero"/><path fill="rgb(16.079712%, 50.19989%, 72.549438%)" d="M 320.4375 174.101562 L 320.4375 207.898438 C 320.4375 208.566406 320.472656 209.390625 320.542969 210.386719 C 320.613281 211.378906 320.792969 212.359375 321.085938 213.324219 C 321.386719 214.28125 321.832031 215.105469 322.429688 215.796875 C 323.027344 216.492188 323.855469 216.839844 324.914062 216.839844 C 328.15625 216.839844 330.542969 213.226562 332.070312 206.003906 L 335.746094 206.003906 C 335.023438 210.183594 334.09375 213.480469 332.960938 215.902344 C 331.832031 218.316406 330.644531 220.152344 329.386719 221.417969 C 328.132812 222.675781 326.839844 223.484375 325.515625 223.84375 C 324.1875 224.214844 322.996094 224.398438 321.929688 224.398438 C 319.617188 224.398438 317.726562 223.953125 316.265625 223.058594 C 314.808594 222.164062 313.644531 221.023438 312.785156 219.636719 C 311.929688 218.242188 311.332031 216.683594 311.003906 214.964844 C 310.671875 213.238281 310.507812 211.578125 310.507812 209.980469 L 310.507812 174.101562 Z M 308.714844 159.800781 C 308.714844 158.015625 309.34375 156.457031 310.597656 155.128906 C 311.863281 153.804688 313.421875 153.140625 315.28125 153.140625 C 317.070312 153.140625 318.625 153.804688 319.941406 155.128906 C 321.265625 156.457031 321.929688 158.015625 321.929688 159.800781 C 321.929688 161.648438 321.265625 163.207031 319.941406 164.472656 C 318.625 165.730469 317.070312 166.355469 315.28125 166.355469 C 313.421875 166.355469 311.863281 165.730469 310.597656 164.472656 C 309.34375 163.207031 308.714844 161.648438 308.714844 159.800781 Z M 308.714844 159.800781 " fill-opacity="1" fill-rule="nonzero"/><path fill="rgb(16.079712%, 50.19989%, 72.549438%)" d="M 363.082031 186.53125 C 363.082031 191.175781 361.175781 195.050781 357.359375 198.164062 C 353.550781 201.273438 348.265625 203.191406 341.507812 203.921875 C 341.777344 206.578125 342.257812 208.730469 342.953125 210.386719 C 343.644531 212.046875 344.488281 213.355469 345.484375 214.316406 C 346.480469 215.273438 347.617188 215.933594 348.90625 216.292969 C 350.203125 216.660156 351.546875 216.839844 352.941406 216.839844 C 356.117188 216.839844 359.097656 216.015625 361.878906 214.363281 C 364.660156 212.707031 366.914062 209.921875 368.644531 206.003906 L 371.824219 206.003906 C 370.960938 208.464844 369.765625 210.800781 368.238281 213.023438 C 366.71875 215.238281 364.933594 217.191406 362.875 218.882812 C 360.820312 220.574219 358.601562 221.914062 356.214844 222.910156 C 353.832031 223.902344 351.382812 224.398438 348.871094 224.398438 C 346.550781 224.398438 344.3125 224 342.15625 223.210938 C 340.003906 222.410156 338.097656 221.097656 336.441406 219.277344 C 334.785156 217.460938 333.441406 215.09375 332.417969 212.179688 C 331.394531 209.257812 330.882812 205.675781 330.882812 201.4375 C 330.882812 198.65625 331.191406 195.640625 331.816406 192.394531 C 332.449219 189.152344 333.507812 186.136719 334.996094 183.351562 C 336.492188 180.574219 338.445312 178.253906 340.859375 176.402344 C 343.277344 174.546875 346.277344 173.617188 349.855469 173.617188 C 351.511719 173.617188 353.117188 173.800781 354.675781 174.160156 C 356.230469 174.523438 357.640625 175.1875 358.898438 176.148438 C 360.160156 177.105469 361.175781 178.414062 361.9375 180.070312 C 362.699219 181.730469 363.082031 183.882812 363.082031 186.53125 Z M 341.414062 200.050781 C 346.113281 199.316406 349.84375 197.660156 352.59375 195.078125 C 355.347656 192.496094 356.722656 189.316406 356.722656 185.539062 C 356.722656 183.019531 356.289062 181.214844 355.429688 180.128906 C 354.5625 179.035156 353.339844 178.484375 351.75 178.484375 C 350.023438 178.484375 348.515625 179.148438 347.21875 180.472656 C 345.929688 181.792969 344.855469 183.496094 343.992188 185.585938 C 343.136719 187.675781 342.492188 189.996094 342.0625 192.546875 C 341.628906 195.097656 341.414062 197.597656 341.414062 200.050781 Z M 341.414062 200.050781 " fill-opacity="1" fill-rule="nonzero"/><g clip-path="url(#id1)"><path fill="rgb(16.079712%, 50.19989%, 72.549438%)" d="M 81.519531 202.75 C 81.519531 224.71875 63.710938 242.527344 41.734375 242.527344 C 19.753906 242.527344 1.9375 224.71875 1.9375 202.75 C 1.9375 180.777344 41.734375 132.257812 41.734375 132.257812 C 41.734375 132.257812 81.519531 180.777344 81.519531 202.75 " fill-opacity="1" fill-rule="nonzero"/></g><g clip-path="url(#id2)"><path fill="rgb(100%, 100%, 100%)" d="M 63.800781 204.527344 C 63.800781 204.890625 63.789062 205.25 63.773438 205.609375 C 63.753906 205.972656 63.730469 206.332031 63.695312 206.691406 C 63.660156 207.046875 63.613281 207.40625 63.5625 207.761719 C 63.507812 208.121094 63.445312 208.476562 63.375 208.828125 C 63.304688 209.183594 63.226562 209.535156 63.140625 209.886719 C 63.050781 210.234375 62.953125 210.582031 62.851562 210.929688 C 62.746094 211.273438 62.632812 211.617188 62.511719 211.957031 C 62.390625 212.296875 62.257812 212.632812 62.121094 212.964844 C 61.984375 213.300781 61.835938 213.628906 61.683594 213.957031 C 61.527344 214.28125 61.367188 214.605469 61.195312 214.921875 C 61.027344 215.242188 60.847656 215.554688 60.664062 215.863281 C 60.476562 216.171875 60.285156 216.476562 60.082031 216.777344 C 59.882812 217.078125 59.675781 217.375 59.460938 217.664062 C 59.246094 217.953125 59.023438 218.238281 58.792969 218.515625 C 58.566406 218.796875 58.328125 219.070312 58.085938 219.335938 C 57.84375 219.601562 57.597656 219.863281 57.339844 220.121094 C 57.085938 220.375 56.824219 220.625 56.558594 220.867188 C 56.289062 221.109375 56.015625 221.34375 55.738281 221.574219 C 55.457031 221.800781 55.175781 222.023438 54.882812 222.238281 C 54.59375 222.453125 54.300781 222.660156 54 222.863281 C 53.699219 223.0625 53.394531 223.257812 53.085938 223.441406 C 52.777344 223.628906 52.460938 223.804688 52.144531 223.976562 C 51.828125 224.144531 51.503906 224.308594 51.175781 224.460938 C 50.851562 224.617188 50.523438 224.761719 50.1875 224.898438 C 49.855469 225.039062 49.519531 225.167969 49.179688 225.289062 C 48.839844 225.410156 48.496094 225.523438 48.148438 225.628906 C 47.804688 225.734375 47.457031 225.828125 47.105469 225.917969 C 46.757812 226.003906 46.40625 226.082031 46.050781 226.15625 C 45.699219 226.226562 45.34375 226.285156 44.984375 226.339844 C 44.628906 226.390625 44.269531 226.4375 43.910156 226.472656 C 43.550781 226.507812 43.191406 226.535156 42.832031 226.550781 C 42.472656 226.570312 42.109375 226.578125 41.75 226.578125 C 41.390625 226.578125 41.027344 226.570312 40.667969 226.550781 C 40.308594 226.535156 39.949219 226.507812 39.589844 226.472656 C 39.230469 226.4375 38.871094 226.390625 38.515625 226.339844 C 38.15625 226.285156 37.800781 226.226562 37.449219 226.15625 C 37.09375 226.082031 36.742188 226.003906 36.390625 225.917969 C 36.042969 225.828125 35.695312 225.734375 35.347656 225.628906 C 35.003906 225.523438 34.660156 225.410156 34.320312 225.289062 C 33.980469 225.167969 33.644531 225.039062 33.3125 224.898438 C 32.976562 224.761719 32.648438 224.617188 32.324219 224.460938 C 31.996094 224.308594 31.671875 224.144531 31.355469 223.976562 C 31.039062 223.804688 30.722656 223.628906 30.414062 223.441406 C 30.105469 223.257812 29.800781 223.0625 29.5 222.863281 C 29.199219 222.660156 28.90625 222.453125 28.613281 222.238281 C 28.324219 222.023438 28.039062 221.800781 27.761719 221.574219 C 27.484375 221.34375 27.210938 221.109375 26.941406 220.867188 C 26.675781 220.625 26.414062 220.375 26.160156 220.121094 C 25.902344 219.863281 25.65625 219.601562 25.414062 219.335938 C 25.167969 219.070312 24.933594 218.796875 24.703125 218.515625 C 24.476562 218.238281 24.253906 217.953125 24.039062 217.664062 C 23.824219 217.375 23.617188 217.078125 23.417969 216.777344 C 23.214844 216.476562 23.023438 216.171875 22.835938 215.863281 C 22.652344 215.554688 22.472656 215.242188 22.304688 214.921875 C 22.132812 214.605469 21.972656 214.28125 21.816406 213.957031 C 21.664062 213.628906 21.515625 213.300781 21.378906 212.964844 C 21.238281 212.632812 21.109375 212.296875 20.988281 211.957031 C 20.867188 211.617188 20.753906 211.273438 20.648438 210.929688 C 20.546875 210.582031 20.449219 210.234375 20.359375 209.886719 C 20.273438 209.535156 20.195312 209.183594 20.125 208.828125 C 20.054688 208.476562 19.992188 208.121094 19.9375 207.761719 C 19.886719 207.40625 19.839844 207.046875 19.804688 206.691406 C 19.769531 206.332031 19.746094 205.972656 19.726562 205.609375 C 19.710938 205.25 19.699219 204.890625 19.699219 204.527344 C 19.699219 204.167969 19.710938 203.804688 19.726562 203.445312 C 19.746094 203.085938 19.769531 202.726562 19.804688 202.367188 C 19.839844 202.007812 19.886719 201.648438 19.9375 201.292969 C 19.992188 200.9375 20.054688 200.582031 20.125 200.226562 C 20.195312 199.871094 20.273438 199.519531 20.359375 199.167969 C 20.449219 198.820312 20.546875 198.472656 20.648438 198.128906 C 20.753906 197.78125 20.867188 197.4375 20.988281 197.097656 C 21.109375 196.761719 21.238281 196.421875 21.378906 196.089844 C 21.515625 195.757812 21.664062 195.425781 21.816406 195.101562 C 21.972656 194.773438 22.132812 194.453125 22.304688 194.132812 C 22.472656 193.816406 22.652344 193.5 22.835938 193.191406 C 23.023438 192.882812 23.214844 192.578125 23.417969 192.277344 C 23.617188 191.976562 23.824219 191.683594 24.039062 191.394531 C 24.253906 191.101562 24.476562 190.820312 24.703125 190.539062 C 24.933594 190.261719 25.167969 189.988281 25.414062 189.71875 C 25.65625 189.453125 25.902344 189.191406 26.160156 188.9375 C 26.414062 188.679688 26.675781 188.433594 26.941406 188.191406 C 27.210938 187.949219 27.484375 187.710938 27.761719 187.484375 C 28.039062 187.253906 28.324219 187.03125 28.613281 186.816406 C 28.90625 186.601562 29.199219 186.394531 29.5 186.195312 C 29.800781 185.992188 30.105469 185.800781 30.414062 185.613281 C 30.722656 185.429688 31.039062 185.253906 31.355469 185.082031 C 31.671875 184.910156 31.996094 184.75 32.324219 184.59375 C 32.648438 184.441406 32.976562 184.292969 33.3125 184.15625 C 33.644531 184.019531 33.980469 183.890625 34.320312 183.765625 C 34.660156 183.644531 35.003906 183.53125 35.347656 183.425781 C 35.695312 183.324219 36.042969 183.226562 36.390625 183.140625 C 36.742188 183.050781 37.09375 182.972656 37.449219 182.902344 C 37.800781 182.832031 38.15625 182.769531 38.515625 182.71875 C 38.871094 182.664062 39.230469 182.621094 39.589844 182.585938 C 39.949219 182.546875 40.308594 182.523438 40.667969 182.503906 C 41.027344 182.488281 41.390625 182.476562 41.75 182.476562 C 42.109375 182.476562 42.472656 182.488281 42.832031 182.503906 C 43.191406 182.523438 43.550781 182.546875 43.910156 182.585938 C 44.269531 182.621094 44.628906 182.664062 44.984375 182.71875 C 45.34375 182.769531 45.699219 182.832031 46.050781 182.902344 C 46.40625 182.972656 46.757812 183.050781 47.105469 183.140625 C 47.457031 183.226562 47.804688 183.324219 48.148438 183.425781 C 48.496094 183.53125 48.839844 183.644531 49.179688 183.765625 C 49.519531 183.890625 49.855469 184.019531 50.1875 184.15625 C 50.523438 184.292969 50.851562 184.441406 51.175781 184.59375 C 51.503906 184.75 51.828125 184.910156 52.144531 185.082031 C 52.460938 185.253906 52.777344 185.429688 53.085938 185.613281 C 53.394531 185.800781 53.699219 185.992188 54 186.195312 C 54.300781 186.394531 54.59375 186.601562 54.882812 186.816406 C 55.175781 187.03125 55.457031 187.253906 55.738281 187.484375 C 56.015625 187.710938 56.289062 187.949219 56.558594 188.191406 C 56.824219 188.433594 57.085938 188.679688 57.339844 188.9375 C 57.597656 189.191406 57.84375 189.453125 58.085938 189.71875 C 58.328125 189.988281 58.566406 190.261719 58.792969 190.539062 C 59.023438 190.820312 59.246094 191.101562 59.460938 191.394531 C 59.675781 191.683594 59.882812 191.976562 60.082031 192.277344 C 60.285156 192.578125 60.476562 192.882812 60.664062 193.191406 C 60.847656 193.5 61.027344 193.816406 61.195312 194.132812 C 61.367188 194.453125 61.527344 194.773438 61.683594 195.101562 C 61.835938 195.425781 61.984375 195.757812 62.121094 196.089844 C 62.257812 196.421875 62.390625 196.761719 62.511719 197.097656 C 62.632812 197.4375 62.746094 197.78125 62.851562 198.128906 C 62.953125 198.472656 63.050781 198.820312 63.140625 199.167969 C 63.226562 199.519531 63.304688 199.871094 63.375 200.226562 C 63.445312 200.582031 63.507812 200.9375 63.5625 201.292969 C 63.613281 201.648438 63.660156 202.007812 63.695312 202.367188 C 63.730469 202.726562 63.753906 203.085938 63.773438 203.445312 C 63.789062 203.804688 63.800781 204.167969 63.800781 204.527344 Z M 63.800781 204.527344 " fill-opacity="1" fill-rule="nonzero"/></g><g clip-path="url(#id3)"><path fill="rgb(16.079712%, 50.19989%, 72.549438%)" d="M 58.535156 204.554688 C 58.535156 205.105469 58.507812 205.652344 58.453125 206.199219 C 58.402344 206.746094 58.320312 207.285156 58.214844 207.824219 C 58.105469 208.363281 57.972656 208.894531 57.8125 209.421875 C 57.65625 209.945312 57.472656 210.460938 57.261719 210.96875 C 57.050781 211.476562 56.816406 211.972656 56.558594 212.457031 C 56.296875 212.941406 56.015625 213.410156 55.710938 213.867188 C 55.40625 214.324219 55.082031 214.761719 54.730469 215.1875 C 54.382812 215.613281 54.015625 216.019531 53.628906 216.40625 C 53.238281 216.792969 52.832031 217.164062 52.410156 217.511719 C 51.984375 217.859375 51.542969 218.1875 51.089844 218.488281 C 50.632812 218.796875 50.160156 219.078125 49.675781 219.335938 C 49.195312 219.59375 48.699219 219.828125 48.191406 220.039062 C 47.683594 220.25 47.167969 220.433594 46.644531 220.59375 C 46.117188 220.753906 45.585938 220.886719 45.046875 220.992188 C 44.507812 221.097656 43.96875 221.179688 43.421875 221.234375 C 42.875 221.289062 42.328125 221.3125 41.777344 221.3125 C 41.230469 221.3125 40.683594 221.289062 40.136719 221.234375 C 39.589844 221.179688 39.046875 221.097656 38.507812 220.992188 C 37.96875 220.886719 37.4375 220.753906 36.914062 220.59375 C 36.390625 220.433594 35.871094 220.25 35.367188 220.039062 C 34.859375 219.828125 34.363281 219.59375 33.878906 219.335938 C 33.394531 219.078125 32.925781 218.796875 32.46875 218.488281 C 32.011719 218.1875 31.570312 217.859375 31.148438 217.511719 C 30.722656 217.164062 30.316406 216.792969 29.929688 216.40625 C 29.539062 216.019531 29.171875 215.613281 28.824219 215.1875 C 28.476562 214.761719 28.148438 214.324219 27.84375 213.867188 C 27.539062 213.410156 27.257812 212.941406 27 212.457031 C 26.738281 211.972656 26.503906 211.476562 26.296875 210.96875 C 26.085938 210.460938 25.902344 209.945312 25.742188 209.421875 C 25.582031 208.894531 25.449219 208.363281 25.34375 207.824219 C 25.234375 207.285156 25.15625 206.746094 25.101562 206.199219 C 25.046875 205.652344 25.019531 205.105469 25.019531 204.554688 C 25.019531 204.007812 25.046875 203.460938 25.101562 202.914062 C 25.15625 202.367188 25.234375 201.824219 25.34375 201.289062 C 25.449219 200.75 25.582031 200.21875 25.742188 199.691406 C 25.902344 199.167969 26.085938 198.652344 26.296875 198.144531 C 26.503906 197.636719 26.738281 197.140625 27 196.65625 C 27.257812 196.171875 27.539062 195.703125 27.84375 195.246094 C 28.148438 194.789062 28.476562 194.351562 28.824219 193.925781 C 29.171875 193.5 29.539062 193.09375 29.929688 192.707031 C 30.316406 192.316406 30.722656 191.949219 31.148438 191.601562 C 31.570312 191.253906 32.011719 190.925781 32.46875 190.625 C 32.925781 190.316406 33.394531 190.035156 33.878906 189.777344 C 34.363281 189.519531 34.859375 189.285156 35.367188 189.074219 C 35.871094 188.863281 36.390625 188.679688 36.914062 188.519531 C 37.4375 188.359375 37.96875 188.226562 38.507812 188.121094 C 39.046875 188.015625 39.589844 187.933594 40.136719 187.878906 C 40.683594 187.824219 41.230469 187.796875 41.777344 187.796875 C 42.328125 187.796875 42.875 187.824219 43.421875 187.878906 C 43.96875 187.933594 44.507812 188.015625 45.046875 188.121094 C 45.585938 188.226562 46.117188 188.359375 46.644531 188.519531 C 47.167969 188.679688 47.683594 188.863281 48.191406 189.074219 C 48.699219 189.285156 49.195312 189.519531 49.675781 189.777344 C 50.160156 190.035156 50.632812 190.316406 51.089844 190.625 C 51.542969 190.925781 51.984375 191.253906 52.410156 191.601562 C 52.832031 191.949219 53.238281 192.316406 53.628906 192.707031 C 54.015625 193.09375 54.382812 193.5 54.730469 193.925781 C 55.082031 194.351562 55.40625 194.789062 55.710938 195.246094 C 56.015625 195.703125 56.296875 196.171875 56.558594 196.65625 C 56.816406 197.140625 57.050781 197.636719 57.261719 198.144531 C 57.472656 198.652344 57.65625 199.167969 57.8125 199.691406 C 57.972656 200.21875 58.105469 200.75 58.214844 201.289062 C 58.320312 201.824219 58.402344 202.367188 58.453125 202.914062 C 58.507812 203.460938 58.535156 204.007812 58.535156 204.554688 Z M 58.535156 204.554688 " fill-opacity="1" fill-rule="nonzero"/></g></svg>