<svg xmlns="http://www.w3.org/2000/svg" xmlns:xlink="http://www.w3.org/1999/xlink" width="500" zoomAndPan="magnify" viewBox="0 0 375 374.999991" height="500" preserveAspectRatio="xMidYMid meet" version="1.0"><defs><g/></defs><g fill="rgb(0%, 0%, 0%)" fill-opacity="1"><g transform="translate(0.0000045, 236.794116)"><g><path d="M 55.734375 -94.015625 L 55.734375 -21.484375 C 55.734375 -20.585938 55.773438 -19.46875 55.859375 -18.125 C 55.953125 -16.78125 56.195312 -15.457031 56.59375 -14.15625 C 57 -12.863281 57.601562 -11.75 58.40625 -10.8125 C 59.21875 -9.875 60.34375 -9.40625 61.78125 -9.40625 C 66.164062 -9.40625 69.390625 -14.285156 71.453125 -24.046875 L 76.421875 -24.046875 C 75.429688 -18.398438 74.175781 -13.941406 72.65625 -10.671875 C 71.132812 -7.410156 69.519531 -4.925781 67.8125 -3.21875 C 66.113281 -1.519531 64.367188 -0.425781 62.578125 0.0625 C 60.785156 0.5625 59.175781 0.8125 57.75 0.8125 C 55.6875 0.8125 53.914062 0.453125 52.4375 -0.265625 C 50.96875 -0.984375 49.71875 -1.921875 48.6875 -3.078125 C 47.65625 -4.242188 46.828125 -5.585938 46.203125 -7.109375 C 45.578125 -8.640625 45.082031 -10.253906 44.71875 -11.953125 C 43.375 -8.460938 41.203125 -5.460938 38.203125 -2.953125 C 35.203125 -0.441406 31.554688 0.8125 27.265625 0.8125 C 24.578125 0.8125 21.867188 0.273438 19.140625 -0.796875 C 16.410156 -1.878906 13.945312 -3.648438 11.75 -6.109375 C 9.550781 -8.566406 7.757812 -11.742188 6.375 -15.640625 C 4.988281 -19.535156 4.296875 -24.304688 4.296875 -29.953125 C 4.296875 -34.066406 4.765625 -38.363281 5.703125 -42.84375 C 6.648438 -47.320312 8.148438 -51.394531 10.203125 -55.0625 C 12.265625 -58.726562 14.90625 -61.769531 18.125 -64.1875 C 21.351562 -66.601562 25.25 -67.8125 29.8125 -67.8125 C 30.882812 -67.8125 32.023438 -67.703125 33.234375 -67.484375 C 34.441406 -67.265625 35.601562 -66.882812 36.71875 -66.34375 C 37.84375 -65.800781 38.894531 -65.0625 39.875 -64.125 C 40.863281 -63.1875 41.671875 -62.046875 42.296875 -60.703125 L 42.296875 -92.125 Z M 30.625 -9.40625 C 31.96875 -9.40625 33.332031 -9.785156 34.71875 -10.546875 C 36.101562 -11.304688 37.351562 -12.332031 38.46875 -13.625 C 39.59375 -14.925781 40.507812 -16.472656 41.21875 -18.265625 C 41.9375 -20.054688 42.296875 -21.984375 42.296875 -24.046875 L 42.296875 -54.65625 C 41.671875 -56.09375 40.707031 -57.414062 39.40625 -58.625 C 38.113281 -59.832031 36.4375 -60.4375 34.375 -60.4375 C 31.507812 -60.4375 29.046875 -59.472656 26.984375 -57.546875 C 24.929688 -55.617188 23.273438 -53.195312 22.015625 -50.28125 C 20.765625 -47.375 19.847656 -44.195312 19.265625 -40.75 C 18.691406 -37.3125 18.40625 -34.023438 18.40625 -30.890625 C 18.40625 -23.191406 19.453125 -17.6875 21.546875 -14.375 C 23.648438 -11.0625 26.675781 -9.40625 30.625 -9.40625 Z M 30.625 -9.40625 "/></g></g></g><g fill="rgb(0%, 0%, 0%)" fill-opacity="1"><g transform="translate(65.132787, 236.794116)"><g><path d="M 19.609375 -67.15625 L 19.609375 -55.875 C 20.679688 -57.476562 21.734375 -58.992188 22.765625 -60.421875 C 23.796875 -61.859375 24.9375 -63.113281 26.1875 -64.1875 C 27.4375 -65.269531 28.820312 -66.144531 30.34375 -66.8125 C 31.875 -67.476562 33.578125 -67.8125 35.453125 -67.8125 C 38.492188 -67.8125 40.726562 -67.03125 42.15625 -65.46875 C 43.59375 -63.90625 44.3125 -62.003906 44.3125 -59.765625 C 44.3125 -58.421875 44.085938 -57.300781 43.640625 -56.40625 C 43.191406 -55.507812 42.65625 -54.789062 42.03125 -54.25 C 41.40625 -53.71875 40.734375 -53.335938 40.015625 -53.109375 C 39.304688 -52.890625 38.679688 -52.78125 38.140625 -52.78125 C 37.335938 -52.78125 36.6875 -52.957031 36.1875 -53.3125 C 35.695312 -53.675781 35.207031 -54.054688 34.71875 -54.453125 C 34.226562 -54.859375 33.664062 -55.238281 33.03125 -55.59375 C 32.40625 -55.957031 31.601562 -56.140625 30.625 -56.140625 C 28.5625 -56.140625 26.585938 -55.421875 24.703125 -53.984375 C 22.828125 -52.554688 21.128906 -51.035156 19.609375 -49.421875 L 19.609375 0 L 6.171875 0 L 6.171875 -67.15625 Z M 19.609375 -67.15625 "/></g></g></g><g fill="rgb(0%, 0%, 0%)" fill-opacity="1"><g transform="translate(110.255704, 236.794116)"><g><path d="M 19.734375 -67.15625 L 19.734375 -21.484375 C 19.734375 -20.585938 19.78125 -19.46875 19.875 -18.125 C 19.96875 -16.78125 20.210938 -15.457031 20.609375 -14.15625 C 21.015625 -12.863281 21.617188 -11.75 22.421875 -10.8125 C 23.234375 -9.875 24.351562 -9.40625 25.78125 -9.40625 C 30.164062 -9.40625 33.390625 -14.285156 35.453125 -24.046875 L 40.421875 -24.046875 C 39.441406 -18.398438 38.1875 -13.941406 36.65625 -10.671875 C 35.132812 -7.410156 33.523438 -4.925781 31.828125 -3.21875 C 30.128906 -1.519531 28.382812 -0.425781 26.59375 0.0625 C 24.800781 0.5625 23.1875 0.8125 21.75 0.8125 C 18.625 0.8125 16.070312 0.207031 14.09375 -1 C 12.125 -2.207031 10.554688 -3.75 9.390625 -5.625 C 8.234375 -7.507812 7.429688 -9.613281 6.984375 -11.9375 C 6.535156 -14.269531 6.3125 -16.515625 6.3125 -18.671875 L 6.3125 -67.15625 Z M 3.890625 -86.484375 C 3.890625 -88.898438 4.738281 -91.003906 6.4375 -92.796875 C 8.144531 -94.585938 10.253906 -95.484375 12.765625 -95.484375 C 15.179688 -95.484375 17.28125 -94.585938 19.0625 -92.796875 C 20.851562 -91.003906 21.75 -88.898438 21.75 -86.484375 C 21.75 -83.984375 20.851562 -81.878906 19.0625 -80.171875 C 17.28125 -78.472656 15.179688 -77.625 12.765625 -77.625 C 10.253906 -77.625 8.144531 -78.472656 6.4375 -80.171875 C 4.738281 -81.878906 3.890625 -83.984375 3.890625 -86.484375 Z M 3.890625 -86.484375 "/></g></g></g><g fill="rgb(0%, 0%, 0%)" fill-opacity="1"><g transform="translate(139.397595, 236.794116)"><g><path d="M 19.734375 -72.125 L 19.734375 -61.78125 C 21.441406 -63.570312 23.4375 -65.023438 25.71875 -66.140625 C 28 -67.253906 30.660156 -67.8125 33.703125 -67.8125 C 36.835938 -67.8125 39.75 -67.140625 42.4375 -65.796875 C 45.125 -64.460938 47.472656 -62.425781 49.484375 -59.6875 C 51.503906 -56.957031 53.09375 -53.507812 54.25 -49.34375 C 55.414062 -45.1875 56 -40.242188 56 -34.515625 C 56 -23.328125 53.894531 -14.640625 49.6875 -8.453125 C 45.476562 -2.273438 39.882812 0.8125 32.90625 0.8125 C 29.945312 0.8125 27.414062 0.253906 25.3125 -0.859375 C 23.207031 -1.984375 21.347656 -3.578125 19.734375 -5.640625 L 19.734375 30.21875 L 6.171875 33.578125 L 6.171875 -72.125 Z M 29.015625 -59.09375 C 27.035156 -59.09375 25.265625 -58.53125 23.703125 -57.40625 C 22.140625 -56.289062 20.816406 -54.703125 19.734375 -52.640625 L 19.734375 -12.359375 C 20.992188 -10.742188 22.40625 -9.578125 23.96875 -8.859375 C 25.539062 -8.148438 27.085938 -7.796875 28.609375 -7.796875 C 30.847656 -7.796875 32.816406 -8.507812 34.515625 -9.9375 C 36.210938 -11.375 37.664062 -13.320312 38.875 -15.78125 C 40.082031 -18.238281 41 -21.125 41.625 -24.4375 C 42.257812 -27.75 42.578125 -31.285156 42.578125 -35.046875 C 42.578125 -39.703125 42.148438 -43.570312 41.296875 -46.65625 C 40.441406 -49.75 39.34375 -52.210938 38 -54.046875 C 36.65625 -55.890625 35.175781 -57.191406 33.5625 -57.953125 C 31.957031 -58.710938 30.441406 -59.09375 29.015625 -59.09375 Z M 29.015625 -59.09375 "/></g></g></g><g fill="rgb(0%, 0%, 0%)" fill-opacity="1"><g transform="translate(196.204116, 236.794116)"><g><path d="M 19.734375 -72.125 L 19.734375 -61.78125 C 21.441406 -63.570312 23.4375 -65.023438 25.71875 -66.140625 C 28 -67.253906 30.660156 -67.8125 33.703125 -67.8125 C 36.835938 -67.8125 39.75 -67.140625 42.4375 -65.796875 C 45.125 -64.460938 47.472656 -62.425781 49.484375 -59.6875 C 51.503906 -56.957031 53.09375 -53.507812 54.25 -49.34375 C 55.414062 -45.1875 56 -40.242188 56 -34.515625 C 56 -23.328125 53.894531 -14.640625 49.6875 -8.453125 C 45.476562 -2.273438 39.882812 0.8125 32.90625 0.8125 C 29.945312 0.8125 27.414062 0.253906 25.3125 -0.859375 C 23.207031 -1.984375 21.347656 -3.578125 19.734375 -5.640625 L 19.734375 30.21875 L 6.171875 33.578125 L 6.171875 -72.125 Z M 29.015625 -59.09375 C 27.035156 -59.09375 25.265625 -58.53125 23.703125 -57.40625 C 22.140625 -56.289062 20.816406 -54.703125 19.734375 -52.640625 L 19.734375 -12.359375 C 20.992188 -10.742188 22.40625 -9.578125 23.96875 -8.859375 C 25.539062 -8.148438 27.085938 -7.796875 28.609375 -7.796875 C 30.847656 -7.796875 32.816406 -8.507812 34.515625 -9.9375 C 36.210938 -11.375 37.664062 -13.320312 38.875 -15.78125 C 40.082031 -18.238281 41 -21.125 41.625 -24.4375 C 42.257812 -27.75 42.578125 -31.285156 42.578125 -35.046875 C 42.578125 -39.703125 42.148438 -43.570312 41.296875 -46.65625 C 40.441406 -49.75 39.34375 -52.210938 38 -54.046875 C 36.65625 -55.890625 35.175781 -57.191406 33.5625 -57.953125 C 31.957031 -58.710938 30.441406 -59.09375 29.015625 -59.09375 Z M 29.015625 -59.09375 "/></g></g></g><g fill="rgb(0%, 0%, 0%)" fill-opacity="1"><g transform="translate(253.010638, 236.794116)"><g><path d="M 19.734375 -94.015625 L 19.734375 -21.484375 C 19.734375 -20.585938 19.78125 -19.46875 19.875 -18.125 C 19.96875 -16.78125 20.210938 -15.457031 20.609375 -14.15625 C 21.015625 -12.863281 21.617188 -11.75 22.421875 -10.8125 C 23.234375 -9.875 24.351562 -9.40625 25.78125 -9.40625 C 30.164062 -9.40625 33.390625 -14.285156 35.453125 -24.046875 L 40.421875 -24.046875 C 39.441406 -18.398438 38.1875 -13.941406 36.65625 -10.671875 C 35.132812 -7.410156 33.523438 -4.925781 31.828125 -3.21875 C 30.128906 -1.519531 28.382812 -0.425781 26.59375 0.0625 C 24.800781 0.5625 23.1875 0.8125 21.75 0.8125 C 18.625 0.8125 16.070312 0.207031 14.09375 -1 C 12.125 -2.207031 10.554688 -3.75 9.390625 -5.625 C 8.234375 -7.507812 7.429688 -9.613281 6.984375 -11.9375 C 6.535156 -14.269531 6.3125 -16.515625 6.3125 -18.671875 L 6.3125 -92.125 Z M 19.734375 -94.015625 "/></g></g></g><g fill="rgb(0%, 0%, 0%)" fill-opacity="1"><g transform="translate(282.018238, 236.794116)"><g><path d="M 19.734375 -67.15625 L 19.734375 -21.484375 C 19.734375 -20.585938 19.78125 -19.46875 19.875 -18.125 C 19.96875 -16.78125 20.210938 -15.457031 20.609375 -14.15625 C 21.015625 -12.863281 21.617188 -11.75 22.421875 -10.8125 C 23.234375 -9.875 24.351562 -9.40625 25.78125 -9.40625 C 30.164062 -9.40625 33.390625 -14.285156 35.453125 -24.046875 L 40.421875 -24.046875 C 39.441406 -18.398438 38.1875 -13.941406 36.65625 -10.671875 C 35.132812 -7.410156 33.523438 -4.925781 31.828125 -3.21875 C 30.128906 -1.519531 28.382812 -0.425781 26.59375 0.0625 C 24.800781 0.5625 23.1875 0.8125 21.75 0.8125 C 18.625 0.8125 16.070312 0.207031 14.09375 -1 C 12.125 -2.207031 10.554688 -3.75 9.390625 -5.625 C 8.234375 -7.507812 7.429688 -9.613281 6.984375 -11.9375 C 6.535156 -14.269531 6.3125 -16.515625 6.3125 -18.671875 L 6.3125 -67.15625 Z M 3.890625 -86.484375 C 3.890625 -88.898438 4.738281 -91.003906 6.4375 -92.796875 C 8.144531 -94.585938 10.253906 -95.484375 12.765625 -95.484375 C 15.179688 -95.484375 17.28125 -94.585938 19.0625 -92.796875 C 20.851562 -91.003906 21.75 -88.898438 21.75 -86.484375 C 21.75 -83.984375 20.851562 -81.878906 19.0625 -80.171875 C 17.28125 -78.472656 15.179688 -77.625 12.765625 -77.625 C 10.253906 -77.625 8.144531 -78.472656 6.4375 -80.171875 C 4.738281 -81.878906 3.890625 -83.984375 3.890625 -86.484375 Z M 3.890625 -86.484375 "/></g></g></g><g fill="rgb(0%, 0%, 0%)" fill-opacity="1"><g transform="translate(311.160129, 236.794116)"><g><path d="M 48.21875 -50.359375 C 48.21875 -44.085938 45.640625 -38.847656 40.484375 -34.640625 C 35.335938 -30.441406 28.195312 -27.847656 19.0625 -26.859375 C 19.425781 -23.273438 20.078125 -20.363281 21.015625 -18.125 C 21.953125 -15.882812 23.09375 -14.113281 24.4375 -12.8125 C 25.78125 -11.519531 27.320312 -10.628906 29.0625 -10.140625 C 30.8125 -9.648438 32.628906 -9.40625 34.515625 -9.40625 C 38.804688 -9.40625 42.832031 -10.519531 46.59375 -12.75 C 50.351562 -14.988281 53.398438 -18.753906 55.734375 -24.046875 L 60.03125 -24.046875 C 58.863281 -20.722656 57.25 -17.5625 55.1875 -14.5625 C 53.132812 -11.570312 50.71875 -8.929688 47.9375 -6.640625 C 45.164062 -4.359375 42.164062 -2.546875 38.9375 -1.203125 C 35.71875 0.140625 32.410156 0.8125 29.015625 0.8125 C 25.878906 0.8125 22.851562 0.273438 19.9375 -0.796875 C 17.03125 -1.878906 14.457031 -3.648438 12.21875 -6.109375 C 9.976562 -8.566406 8.164062 -11.765625 6.78125 -15.703125 C 5.394531 -19.648438 4.703125 -24.488281 4.703125 -30.21875 C 4.703125 -33.976562 5.125 -38.050781 5.96875 -42.4375 C 6.820312 -46.820312 8.253906 -50.894531 10.265625 -54.65625 C 12.285156 -58.414062 14.925781 -61.546875 18.1875 -64.046875 C 21.457031 -66.554688 25.507812 -67.8125 30.34375 -67.8125 C 32.582031 -67.8125 34.753906 -67.566406 36.859375 -67.078125 C 38.960938 -66.585938 40.863281 -65.691406 42.5625 -64.390625 C 44.269531 -63.097656 45.640625 -61.332031 46.671875 -59.09375 C 47.703125 -56.851562 48.21875 -53.941406 48.21875 -50.359375 Z M 18.9375 -32.09375 C 25.289062 -33.082031 30.328125 -35.320312 34.046875 -38.8125 C 37.765625 -42.300781 39.625 -46.597656 39.625 -51.703125 C 39.625 -55.109375 39.039062 -57.546875 37.875 -59.015625 C 36.707031 -60.492188 35.050781 -61.234375 32.90625 -61.234375 C 30.570312 -61.234375 28.53125 -60.335938 26.78125 -58.546875 C 25.039062 -56.765625 23.585938 -54.460938 22.421875 -51.640625 C 21.265625 -48.816406 20.394531 -45.679688 19.8125 -42.234375 C 19.226562 -38.785156 18.9375 -35.40625 18.9375 -32.09375 Z M 18.9375 -32.09375 "/></g></g></g></svg>