<svg id="SvgjsSvg1001" width="288" height="288" xmlns="http://www.w3.org/2000/svg" version="1.1" xmlns:xlink="http://www.w3.org/1999/xlink" xmlns:svgjs="http://svgjs.com/svgjs"><defs id="SvgjsDefs1002"></defs><g id="SvgjsG1008"><svg xmlns="http://www.w3.org/2000/svg" width="288" height="288" version="1.0" viewBox="0 0 375 375"><defs><clipPath id="a"><path d="M 119.183594 14.375 L 255.640625 14.375 L 255.640625 203.375 L 119.183594 203.375 Z M 119.183594 14.375 " fill="#2980b9" class="color000 svgShape"></path></clipPath><clipPath id="b"><path d="M 149.59375 100.496094 L 225.195312 100.496094 L 225.195312 176.097656 L 149.59375 176.097656 Z M 149.59375 100.496094 " fill="#2980b9" class="color000 svgShape"></path></clipPath><clipPath id="c"><path d="M 158.714844 109.617188 L 216.171875 109.617188 L 216.171875 167.074219 L 158.714844 167.074219 Z M 158.714844 109.617188 " fill="#2980b9" class="color000 svgShape"></path></clipPath></defs><path d="M 55.734375 220.558594 L 55.734375 293.089844 C 55.734375 293.988281 55.773438 295.105469 55.859375 296.449219 C 55.953125 297.792969 56.195312 299.117188 56.59375 300.417969 C 57 301.710938 57.601562 302.824219 58.40625 303.761719 C 59.21875 304.699219 60.34375 305.167969 61.78125 305.167969 C 66.164062 305.167969 69.390625 300.289062 71.453125 290.527344 L 76.421875 290.527344 C 75.429688 296.175781 74.175781 300.632812 72.65625 303.902344 C 71.132812 307.164062 69.519531 309.648438 67.8125 311.355469 C 66.113281 313.054688 64.367188 314.148438 62.578125 314.636719 C 60.785156 315.136719 59.175781 315.386719 57.75 315.386719 C 55.6875 315.386719 53.914062 315.027344 52.4375 314.308594 C 50.96875 313.589844 49.71875 312.652344 48.6875 311.496094 C 47.65625 310.332031 46.828125 308.988281 46.203125 307.464844 C 45.578125 305.933594 45.082031 304.320312 44.71875 302.621094 C 43.375 306.113281 41.203125 309.113281 38.203125 311.621094 C 35.203125 314.132812 31.554688 315.386719 27.265625 315.386719 C 24.578125 315.386719 21.867188 314.847656 19.140625 313.777344 C 16.410156 312.695312 13.945312 310.925781 11.75 308.464844 C 9.550781 306.007812 7.757812 302.832031 6.375 298.933594 C 4.988281 295.039062 4.296875 290.269531 4.296875 284.621094 C 4.296875 280.507812 4.765625 276.210938 5.703125 271.730469 C 6.648438 267.253906 8.148438 263.179688 10.203125 259.511719 C 12.265625 255.847656 14.90625 252.804688 18.125 250.386719 C 21.351562 247.972656 25.25 246.761719 29.8125 246.761719 C 30.882812 246.761719 32.023438 246.871094 33.234375 247.089844 C 34.441406 247.308594 35.601562 247.691406 36.71875 248.230469 C 37.84375 248.773438 38.894531 249.511719 39.875 250.449219 C 40.863281 251.386719 41.671875 252.527344 42.296875 253.871094 L 42.296875 222.449219 Z M 30.625 305.167969 C 31.96875 305.167969 33.332031 304.789062 34.71875 304.027344 C 36.101562 303.269531 37.351562 302.242188 38.46875 300.949219 C 39.59375 299.648438 40.507812 298.101562 41.21875 296.308594 C 41.9375 294.519531 42.296875 292.589844 42.296875 290.527344 L 42.296875 259.917969 C 41.671875 258.480469 40.707031 257.160156 39.40625 255.949219 C 38.113281 254.742188 36.4375 254.136719 34.375 254.136719 C 31.507812 254.136719 29.046875 255.101562 26.984375 257.027344 C 24.929688 258.957031 23.273438 261.378906 22.015625 264.292969 C 20.765625 267.199219 19.847656 270.378906 19.265625 273.824219 C 18.691406 277.261719 18.40625 280.550781 18.40625 283.683594 C 18.40625 291.382812 19.453125 296.886719 21.546875 300.199219 C 23.648438 303.511719 26.675781 305.167969 30.625 305.167969 Z M 30.625 305.167969 " fill="#2980b9" class="color000 svgShape"></path><path d="M84.742188 247.417969L84.742188 258.699219C85.8125 257.097656 86.867188 255.582031 87.898438 254.152344 88.929688 252.714844 90.070312 251.460938 91.320312 250.386719 92.570312 249.304688 93.953125 248.429688 95.476562 247.761719 97.007812 247.097656 98.710938 246.761719 100.585938 246.761719 103.625 246.761719 105.859375 247.542969 107.289062 249.105469 108.726562 250.667969 109.445312 252.570312 109.445312 254.808594 109.445312 256.152344 109.21875 257.273438 108.773438 258.167969 108.324219 259.066406 107.789062 259.785156 107.164062 260.324219 106.539062 260.855469 105.867188 261.238281 105.148438 261.464844 104.4375 261.683594 103.8125 261.792969 103.273438 261.792969 102.46875 261.792969 101.820312 261.617188 101.320312 261.261719 100.828125 260.898438 100.339844 260.519531 99.851562 260.121094 99.359375 259.714844 98.796875 259.335938 98.164062 258.980469 97.539062 258.617188 96.734375 258.433594 95.757812 258.433594 93.695312 258.433594 91.71875 259.152344 89.835938 260.589844 87.960938 262.019531 86.261719 263.539062 84.742188 265.152344L84.742188 314.574219 71.304688 314.574219 71.304688 247.417969zM129.992188 247.417969L129.992188 293.089844C129.992188 293.988281 130.039062 295.105469 130.132812 296.449219 130.226562 297.792969 130.46875 299.117188 130.867188 300.417969 131.273438 301.710938 131.875 302.824219 132.679688 303.761719 133.492188 304.699219 134.609375 305.167969 136.039062 305.167969 140.421875 305.167969 143.648438 300.289062 145.710938 290.527344L150.679688 290.527344C149.699219 296.175781 148.445312 300.632812 146.914062 303.902344 145.390625 307.164062 143.78125 309.648438 142.085938 311.355469 140.386719 313.054688 138.640625 314.148438 136.851562 314.636719 135.058594 315.136719 133.445312 315.386719 132.007812 315.386719 128.882812 315.386719 126.328125 314.78125 124.351562 313.574219 122.382812 312.367188 120.8125 310.824219 119.648438 308.949219 118.492188 307.066406 117.6875 304.960938 117.242188 302.636719 116.792969 300.304688 116.570312 298.058594 116.570312 295.902344L116.570312 247.417969zM114.148438 228.089844C114.148438 225.675781 114.996094 223.570312 116.695312 221.777344 118.402344 219.988281 120.511719 219.089844 123.023438 219.089844 125.4375 219.089844 127.539062 219.988281 129.320312 221.777344 131.109375 223.570312 132.007812 225.675781 132.007812 228.089844 132.007812 230.589844 131.109375 232.695312 129.320312 234.402344 127.539062 236.101562 125.4375 236.949219 123.023438 236.949219 120.511719 236.949219 118.402344 236.101562 116.695312 234.402344 114.996094 232.695312 114.148438 230.589844 114.148438 228.089844zM114.148438 228.089844" fill="#2980b9" class="color000 svgShape"></path><path d="M159.132812 242.449219L159.132812 252.792969C160.839844 251.003906 162.835938 249.550781 165.117188 248.433594 167.398438 247.320312 170.058594 246.761719 173.101562 246.761719 176.234375 246.761719 179.148438 247.433594 181.835938 248.777344 184.523438 250.113281 186.871094 252.148438 188.882812 254.886719 190.902344 257.617188 192.492188 261.066406 193.648438 265.230469 194.8125 269.386719 195.398438 274.332031 195.398438 280.058594 195.398438 291.246094 193.292969 299.933594 189.085938 306.121094 184.875 312.300781 179.28125 315.386719 172.304688 315.386719 169.34375 315.386719 166.8125 314.828125 164.710938 313.714844 162.605469 312.589844 160.746094 310.996094 159.132812 308.933594L159.132812 344.792969 145.570312 348.152344 145.570312 242.449219zM168.414062 255.480469C166.433594 255.480469 164.664062 256.042969 163.101562 257.167969 161.539062 258.285156 160.214844 259.871094 159.132812 261.933594L159.132812 302.214844C160.390625 303.832031 161.804688 304.996094 163.367188 305.714844 164.9375 306.425781 166.484375 306.777344 168.007812 306.777344 170.246094 306.777344 172.214844 306.066406 173.914062 304.636719 175.609375 303.199219 177.0625 301.253906 178.273438 298.792969 179.480469 296.335938 180.398438 293.449219 181.023438 290.136719 181.65625 286.824219 181.976562 283.289062 181.976562 279.527344 181.976562 274.871094 181.546875 271.003906 180.695312 267.917969 179.839844 264.824219 178.742188 262.363281 177.398438 260.527344 176.054688 258.683594 174.574219 257.382812 172.960938 256.621094 171.355469 255.863281 169.839844 255.480469 168.414062 255.480469zM215.9375 242.449219L215.9375 252.792969C217.644531 251.003906 219.640625 249.550781 221.921875 248.433594 224.203125 247.320312 226.863281 246.761719 229.90625 246.761719 233.039062 246.761719 235.953125 247.433594 238.640625 248.777344 241.328125 250.113281 243.675781 252.148438 245.6875 254.886719 247.707031 257.617188 249.296875 261.066406 250.453125 265.230469 251.617188 269.386719 252.203125 274.332031 252.203125 280.058594 252.203125 291.246094 250.097656 299.933594 245.890625 306.121094 241.679688 312.300781 236.085938 315.386719 229.109375 315.386719 226.148438 315.386719 223.617188 314.828125 221.515625 313.714844 219.410156 312.589844 217.550781 310.996094 215.9375 308.933594L215.9375 344.792969 202.375 348.152344 202.375 242.449219zM225.21875 255.480469C223.238281 255.480469 221.46875 256.042969 219.90625 257.167969 218.34375 258.285156 217.019531 259.871094 215.9375 261.933594L215.9375 302.214844C217.195312 303.832031 218.609375 304.996094 220.171875 305.714844 221.742188 306.425781 223.289062 306.777344 224.8125 306.777344 227.050781 306.777344 229.019531 306.066406 230.71875 304.636719 232.414062 303.199219 233.867188 301.253906 235.078125 298.792969 236.285156 296.335938 237.203125 293.449219 237.828125 290.136719 238.460938 286.824219 238.78125 283.289062 238.78125 279.527344 238.78125 274.871094 238.351562 271.003906 237.5 267.917969 236.644531 264.824219 235.546875 262.363281 234.203125 260.527344 232.859375 258.683594 231.378906 257.382812 229.765625 256.621094 228.160156 255.863281 226.644531 255.480469 225.21875 255.480469zM272.746094 220.558594L272.746094 293.089844C272.746094 293.988281 272.792969 295.105469 272.886719 296.449219 272.980469 297.792969 273.222656 299.117188 273.621094 300.417969 274.027344 301.710938 274.628906 302.824219 275.433594 303.761719 276.246094 304.699219 277.363281 305.167969 278.792969 305.167969 283.175781 305.167969 286.402344 300.289062 288.464844 290.527344L293.433594 290.527344C292.453125 296.175781 291.199219 300.632812 289.667969 303.902344 288.144531 307.164062 286.535156 309.648438 284.839844 311.355469 283.140625 313.054688 281.394531 314.148438 279.605469 314.636719 277.8125 315.136719 276.199219 315.386719 274.761719 315.386719 271.636719 315.386719 269.082031 314.78125 267.105469 313.574219 265.136719 312.367188 263.566406 310.824219 262.402344 308.949219 261.246094 307.066406 260.441406 304.960938 259.996094 302.636719 259.546875 300.304688 259.324219 298.058594 259.324219 295.902344L259.324219 222.449219zM272.746094 220.558594" fill="#2980b9" class="color000 svgShape"></path><path d="M 301.753906 247.417969 L 301.753906 293.089844 C 301.753906 293.988281 301.800781 295.105469 301.894531 296.449219 C 301.988281 297.792969 302.230469 299.117188 302.628906 300.417969 C 303.035156 301.710938 303.636719 302.824219 304.441406 303.761719 C 305.253906 304.699219 306.371094 305.167969 307.800781 305.167969 C 312.183594 305.167969 315.410156 300.289062 317.472656 290.527344 L 322.441406 290.527344 C 321.460938 296.175781 320.207031 300.632812 318.675781 303.902344 C 317.152344 307.164062 315.542969 309.648438 313.847656 311.355469 C 312.148438 313.054688 310.402344 314.148438 308.613281 314.636719 C 306.820312 315.136719 305.207031 315.386719 303.769531 315.386719 C 300.644531 315.386719 298.089844 314.78125 296.113281 313.574219 C 294.144531 312.367188 292.574219 310.824219 291.410156 308.949219 C 290.253906 307.066406 289.449219 304.960938 289.003906 302.636719 C 288.554688 300.304688 288.332031 298.058594 288.332031 295.902344 L 288.332031 247.417969 Z M 285.910156 228.089844 C 285.910156 225.675781 286.757812 223.570312 288.457031 221.777344 C 290.164062 219.988281 292.273438 219.089844 294.785156 219.089844 C 297.199219 219.089844 299.300781 219.988281 301.082031 221.777344 C 302.871094 223.570312 303.769531 225.675781 303.769531 228.089844 C 303.769531 230.589844 302.871094 232.695312 301.082031 234.402344 C 299.300781 236.101562 297.199219 236.949219 294.785156 236.949219 C 292.273438 236.949219 290.164062 236.101562 288.457031 234.402344 C 286.757812 232.695312 285.910156 230.589844 285.910156 228.089844 Z M 285.910156 228.089844 " fill="#2980b9" class="color000 svgShape"></path><path d="M 359.378906 264.214844 C 359.378906 270.488281 356.800781 275.726562 351.644531 279.933594 C 346.496094 284.132812 339.355469 286.726562 330.222656 287.714844 C 330.585938 291.300781 331.238281 294.210938 332.175781 296.449219 C 333.113281 298.691406 334.253906 300.460938 335.597656 301.761719 C 336.941406 303.054688 338.480469 303.945312 340.222656 304.433594 C 341.972656 304.925781 343.789062 305.167969 345.675781 305.167969 C 349.964844 305.167969 353.992188 304.054688 357.753906 301.824219 C 361.511719 299.585938 364.558594 295.820312 366.894531 290.527344 L 371.191406 290.527344 C 370.023438 293.851562 368.410156 297.011719 366.347656 300.011719 C 364.292969 303.003906 361.878906 305.644531 359.097656 307.933594 C 356.324219 310.214844 353.324219 312.027344 350.097656 313.371094 C 346.878906 314.714844 343.570312 315.386719 340.175781 315.386719 C 337.039062 315.386719 334.011719 314.847656 331.097656 313.777344 C 328.191406 312.695312 325.617188 310.925781 323.378906 308.464844 C 321.136719 306.007812 319.324219 302.808594 317.941406 298.871094 C 316.554688 294.925781 315.863281 290.085938 315.863281 284.355469 C 315.863281 280.597656 316.285156 276.523438 317.128906 272.136719 C 317.980469 267.753906 319.414062 263.679688 321.425781 259.917969 C 323.445312 256.160156 326.085938 253.027344 329.347656 250.527344 C 332.617188 248.019531 336.667969 246.761719 341.503906 246.761719 C 343.742188 246.761719 345.914062 247.007812 348.019531 247.496094 C 350.121094 247.988281 352.023438 248.882812 353.722656 250.183594 C 355.429688 251.476562 356.800781 253.242188 357.832031 255.480469 C 358.863281 257.722656 359.378906 260.632812 359.378906 264.214844 Z M 330.097656 282.480469 C 336.449219 281.492188 341.488281 279.253906 345.207031 275.761719 C 348.925781 272.273438 350.785156 267.976562 350.785156 262.871094 C 350.785156 259.464844 350.199219 257.027344 349.035156 255.558594 C 347.867188 254.082031 346.210938 253.339844 344.066406 253.339844 C 341.730469 253.339844 339.691406 254.238281 337.941406 256.027344 C 336.199219 257.808594 334.746094 260.113281 333.582031 262.933594 C 332.425781 265.757812 331.554688 268.894531 330.972656 272.339844 C 330.386719 275.789062 330.097656 279.167969 330.097656 282.480469 Z M 330.097656 282.480469 " fill="#2980b9" class="color000 svgShape"></path><g clip-path="url(#a)" fill="#2980b9" class="color000 svgShape"><path d="M 255.574219 135.25 C 255.574219 172.910156 225.042969 203.441406 187.367188 203.441406 C 149.6875 203.441406 119.144531 172.910156 119.144531 135.25 C 119.144531 97.582031 187.367188 14.402344 187.367188 14.402344 C 187.367188 14.402344 255.574219 97.582031 255.574219 135.25 " fill="#2980b9" class="color000 svgShape"></path></g><g clip-path="url(#b)" fill="#2980b9" class="color000 svgShape"><path fill="#ffffff" d="M 225.195312 138.296875 C 225.195312 138.914062 225.179688 139.535156 225.148438 140.152344 C 225.117188 140.769531 225.074219 141.386719 225.015625 142.003906 C 224.953125 142.617188 224.875 143.230469 224.785156 143.84375 C 224.695312 144.457031 224.589844 145.0625 224.46875 145.671875 C 224.347656 146.277344 224.210938 146.882812 224.0625 147.480469 C 223.910156 148.082031 223.746094 148.675781 223.566406 149.269531 C 223.386719 149.863281 223.191406 150.449219 222.984375 151.03125 C 222.777344 151.613281 222.554688 152.191406 222.316406 152.761719 C 222.082031 153.335938 221.832031 153.898438 221.566406 154.460938 C 221.300781 155.019531 221.023438 155.570312 220.730469 156.117188 C 220.441406 156.664062 220.136719 157.199219 219.816406 157.730469 C 219.5 158.261719 219.167969 158.78125 218.824219 159.296875 C 218.480469 159.8125 218.125 160.316406 217.757812 160.8125 C 217.386719 161.3125 217.007812 161.796875 216.617188 162.277344 C 216.222656 162.753906 215.816406 163.222656 215.402344 163.683594 C 214.988281 164.140625 214.5625 164.589844 214.121094 165.027344 C 213.6875 165.460938 213.238281 165.890625 212.78125 166.304688 C 212.320312 166.71875 211.851562 167.125 211.375 167.515625 C 210.894531 167.910156 210.410156 168.289062 209.910156 168.65625 C 209.414062 169.027344 208.910156 169.382812 208.394531 169.726562 C 207.882812 170.070312 207.359375 170.402344 206.828125 170.71875 C 206.296875 171.039062 205.757812 171.339844 205.214844 171.632812 C 204.667969 171.925781 204.117188 172.203125 203.554688 172.46875 C 202.996094 172.734375 202.433594 172.984375 201.863281 173.21875 C 201.289062 173.457031 200.710938 173.679688 200.128906 173.886719 C 199.546875 174.09375 198.960938 174.289062 198.367188 174.46875 C 197.777344 174.648438 197.179688 174.8125 196.578125 174.964844 C 195.980469 175.117188 195.375 175.25 194.769531 175.371094 C 194.164062 175.492188 193.554688 175.597656 192.941406 175.6875 C 192.328125 175.777344 191.714844 175.855469 191.101562 175.914062 C 190.484375 175.976562 189.867188 176.019531 189.25 176.050781 C 188.632812 176.082031 188.011719 176.097656 187.394531 176.097656 C 186.777344 176.097656 186.160156 176.082031 185.539062 176.050781 C 184.921875 176.019531 184.304688 175.976562 183.691406 175.914062 C 183.074219 175.855469 182.460938 175.777344 181.847656 175.6875 C 181.238281 175.597656 180.625 175.492188 180.019531 175.371094 C 179.414062 175.25 178.8125 175.117188 178.210938 174.964844 C 177.609375 174.8125 177.015625 174.648438 176.421875 174.46875 C 175.832031 174.289062 175.242188 174.09375 174.660156 173.886719 C 174.078125 173.679688 173.5 173.457031 172.929688 173.21875 C 172.359375 172.984375 171.792969 172.734375 171.234375 172.46875 C 170.675781 172.203125 170.121094 171.925781 169.574219 171.632812 C 169.03125 171.339844 168.492188 171.039062 167.960938 170.71875 C 167.433594 170.402344 166.910156 170.070312 166.394531 169.726562 C 165.878906 169.382812 165.375 169.027344 164.878906 168.65625 C 164.378906 168.289062 163.894531 167.910156 163.414062 167.515625 C 162.9375 167.125 162.46875 166.71875 162.011719 166.304688 C 161.550781 165.890625 161.105469 165.460938 160.667969 165.027344 C 160.226562 164.589844 159.804688 164.140625 159.386719 163.683594 C 158.972656 163.222656 158.570312 162.753906 158.175781 162.277344 C 157.78125 161.796875 157.402344 161.308594 157.03125 160.8125 C 156.664062 160.316406 156.308594 159.8125 155.964844 159.296875 C 155.621094 158.78125 155.289062 158.261719 154.972656 157.730469 C 154.65625 157.199219 154.347656 156.664062 154.058594 156.117188 C 153.765625 155.570312 153.488281 155.019531 153.222656 154.460938 C 152.960938 153.898438 152.710938 153.335938 152.472656 152.761719 C 152.234375 152.191406 152.011719 151.613281 151.804688 151.03125 C 151.59375 150.449219 151.402344 149.863281 151.222656 149.269531 C 151.042969 148.675781 150.878906 148.082031 150.726562 147.480469 C 150.578125 146.882812 150.441406 146.277344 150.320312 145.671875 C 150.203125 145.0625 150.09375 144.457031 150.003906 143.84375 C 149.914062 143.230469 149.835938 142.617188 149.777344 142.003906 C 149.71875 141.386719 149.671875 140.769531 149.640625 140.152344 C 149.609375 139.535156 149.59375 138.914062 149.59375 138.296875 C 149.59375 137.675781 149.609375 137.058594 149.640625 136.441406 C 149.671875 135.824219 149.71875 135.207031 149.777344 134.59375 C 149.835938 133.976562 149.914062 133.363281 150.003906 132.75 C 150.09375 132.140625 150.203125 131.527344 150.320312 130.921875 C 150.441406 130.316406 150.578125 129.710938 150.726562 129.113281 C 150.878906 128.511719 151.042969 127.917969 151.222656 127.324219 C 151.402344 126.734375 151.59375 126.144531 151.804688 125.5625 C 152.011719 124.980469 152.234375 124.402344 152.472656 123.832031 C 152.710938 123.261719 152.960938 122.695312 153.222656 122.136719 C 153.488281 121.578125 153.765625 121.023438 154.058594 120.476562 C 154.347656 119.933594 154.65625 119.394531 154.972656 118.863281 C 155.289062 118.332031 155.621094 117.8125 155.964844 117.296875 C 156.308594 116.78125 156.664062 116.277344 157.03125 115.777344 C 157.402344 115.28125 157.78125 114.792969 158.175781 114.316406 C 158.570312 113.839844 158.972656 113.371094 159.386719 112.914062 C 159.804688 112.453125 160.226562 112.003906 160.667969 111.566406 C 161.105469 111.132812 161.550781 110.703125 162.011719 110.289062 C 162.46875 109.871094 162.9375 109.46875 163.414062 109.078125 C 163.894531 108.6875 164.378906 108.304688 164.878906 107.9375 C 165.375 107.566406 165.878906 107.210938 166.394531 106.867188 C 166.910156 106.523438 167.433594 106.191406 167.960938 105.875 C 168.492188 105.558594 169.03125 105.253906 169.574219 104.960938 C 170.121094 104.667969 170.675781 104.390625 171.234375 104.125 C 171.792969 103.863281 172.359375 103.609375 172.929688 103.375 C 173.5 103.136719 174.078125 102.914062 174.660156 102.707031 C 175.242188 102.496094 175.832031 102.304688 176.421875 102.125 C 177.015625 101.945312 177.609375 101.78125 178.210938 101.628906 C 178.8125 101.480469 179.414062 101.34375 180.019531 101.222656 C 180.625 101.101562 181.238281 100.996094 181.847656 100.90625 C 182.460938 100.816406 183.074219 100.738281 183.691406 100.679688 C 184.304688 100.617188 184.921875 100.574219 185.539062 100.542969 C 186.160156 100.511719 186.777344 100.496094 187.394531 100.496094 C 188.011719 100.496094 188.632812 100.511719 189.25 100.542969 C 189.867188 100.574219 190.484375 100.617188 191.101562 100.679688 C 191.714844 100.738281 192.328125 100.816406 192.941406 100.90625 C 193.554688 100.996094 194.164062 101.101562 194.769531 101.222656 C 195.375 101.34375 195.980469 101.480469 196.578125 101.628906 C 197.179688 101.78125 197.777344 101.945312 198.367188 102.125 C 198.960938 102.304688 199.546875 102.496094 200.128906 102.707031 C 200.710938 102.914062 201.289062 103.136719 201.863281 103.375 C 202.433594 103.609375 202.996094 103.863281 203.554688 104.125 C 204.117188 104.390625 204.667969 104.667969 205.214844 104.960938 C 205.757812 105.253906 206.296875 105.558594 206.828125 105.875 C 207.359375 106.191406 207.882812 106.523438 208.394531 106.867188 C 208.910156 107.210938 209.414062 107.566406 209.910156 107.9375 C 210.410156 108.304688 210.894531 108.6875 211.375 109.078125 C 211.851562 109.46875 212.320312 109.871094 212.78125 110.289062 C 213.238281 110.703125 213.6875 111.132812 214.121094 111.566406 C 214.5625 112.003906 214.988281 112.453125 215.402344 112.914062 C 215.816406 113.371094 216.222656 113.839844 216.617188 114.316406 C 217.007812 114.792969 217.386719 115.28125 217.757812 115.777344 C 218.125 116.277344 218.480469 116.78125 218.824219 117.296875 C 219.167969 117.8125 219.5 118.332031 219.816406 118.863281 C 220.136719 119.394531 220.441406 119.933594 220.730469 120.476562 C 221.023438 121.023438 221.300781 121.578125 221.566406 122.136719 C 221.832031 122.695312 222.082031 123.261719 222.316406 123.832031 C 222.554688 124.402344 222.777344 124.980469 222.984375 125.5625 C 223.191406 126.144531 223.386719 126.734375 223.566406 127.324219 C 223.746094 127.917969 223.910156 128.511719 224.0625 129.113281 C 224.210938 129.710938 224.347656 130.316406 224.46875 130.921875 C 224.589844 131.527344 224.695312 132.140625 224.785156 132.75 C 224.875 133.363281 224.953125 133.976562 225.015625 134.59375 C 225.074219 135.207031 225.117188 135.824219 225.148438 136.441406 C 225.179688 137.058594 225.195312 137.675781 225.195312 138.296875 Z M 225.195312 138.296875 " class="colorFFF svgShape"></path></g><g clip-path="url(#c)" fill="#2980b9" class="color000 svgShape"><path d="M 216.171875 138.34375 C 216.171875 139.285156 216.125 140.226562 216.03125 141.164062 C 215.941406 142.097656 215.804688 143.027344 215.617188 143.949219 C 215.4375 144.875 215.207031 145.785156 214.933594 146.683594 C 214.664062 147.585938 214.34375 148.46875 213.984375 149.339844 C 213.625 150.207031 213.222656 151.058594 212.78125 151.886719 C 212.335938 152.714844 211.851562 153.523438 211.332031 154.304688 C 210.808594 155.089844 210.25 155.84375 209.648438 156.570312 C 209.054688 157.296875 208.421875 157.996094 207.757812 158.660156 C 207.09375 159.324219 206.394531 159.957031 205.667969 160.550781 C 204.941406 161.148438 204.1875 161.710938 203.40625 162.230469 C 202.621094 162.753906 201.816406 163.238281 200.984375 163.679688 C 200.15625 164.125 199.304688 164.527344 198.4375 164.886719 C 197.566406 165.246094 196.683594 165.5625 195.785156 165.835938 C 194.882812 166.109375 193.96875 166.339844 193.046875 166.523438 C 192.125 166.703125 191.195312 166.84375 190.257812 166.933594 C 189.324219 167.027344 188.386719 167.074219 187.445312 167.074219 C 186.503906 167.074219 185.5625 167.027344 184.628906 166.933594 C 183.691406 166.84375 182.761719 166.703125 181.839844 166.523438 C 180.914062 166.339844 180.003906 166.109375 179.105469 165.835938 C 178.203125 165.5625 177.320312 165.246094 176.449219 164.886719 C 175.582031 164.527344 174.730469 164.125 173.902344 163.679688 C 173.074219 163.238281 172.265625 162.753906 171.484375 162.230469 C 170.699219 161.710938 169.945312 161.148438 169.21875 160.550781 C 168.492188 159.957031 167.796875 159.324219 167.128906 158.660156 C 166.464844 157.996094 165.832031 157.296875 165.238281 156.570312 C 164.640625 155.84375 164.078125 155.089844 163.558594 154.304688 C 163.035156 153.523438 162.550781 152.714844 162.109375 151.886719 C 161.664062 151.058594 161.261719 150.207031 160.902344 149.339844 C 160.542969 148.46875 160.226562 147.585938 159.953125 146.683594 C 159.679688 145.785156 159.449219 144.875 159.265625 143.949219 C 159.085938 143.027344 158.945312 142.097656 158.855469 141.164062 C 158.761719 140.226562 158.714844 139.285156 158.714844 138.34375 C 158.714844 137.402344 158.761719 136.464844 158.855469 135.53125 C 158.945312 134.59375 159.085938 133.664062 159.265625 132.742188 C 159.449219 131.820312 159.679688 130.90625 159.953125 130.007812 C 160.226562 129.105469 160.542969 128.222656 160.902344 127.351562 C 161.261719 126.484375 161.664062 125.632812 162.109375 124.804688 C 162.550781 123.972656 163.035156 123.167969 163.558594 122.386719 C 164.078125 121.601562 164.640625 120.847656 165.238281 120.121094 C 165.832031 119.394531 166.464844 118.695312 167.128906 118.03125 C 167.796875 117.367188 168.492188 116.734375 169.21875 116.140625 C 169.945312 115.539062 170.699219 114.980469 171.484375 114.460938 C 172.265625 113.9375 173.074219 113.453125 173.902344 113.007812 C 174.730469 112.566406 175.582031 112.164062 176.449219 111.804688 C 177.320312 111.445312 178.203125 111.125 179.105469 110.855469 C 180.003906 110.582031 180.914062 110.351562 181.839844 110.171875 C 182.761719 109.988281 183.691406 109.847656 184.628906 109.757812 C 185.5625 109.664062 186.503906 109.617188 187.445312 109.617188 C 188.386719 109.617188 189.324219 109.664062 190.257812 109.757812 C 191.195312 109.847656 192.125 109.988281 193.046875 110.171875 C 193.96875 110.351562 194.882812 110.582031 195.785156 110.855469 C 196.683594 111.125 197.566406 111.445312 198.4375 111.804688 C 199.304688 112.164062 200.15625 112.566406 200.984375 113.007812 C 201.816406 113.453125 202.621094 113.9375 203.40625 114.460938 C 204.1875 114.980469 204.941406 115.539062 205.667969 116.140625 C 206.394531 116.734375 207.09375 117.367188 207.757812 118.03125 C 208.421875 118.695312 209.054688 119.394531 209.648438 120.121094 C 210.25 120.847656 210.808594 121.601562 211.332031 122.386719 C 211.851562 123.167969 212.335938 123.972656 212.78125 124.804688 C 213.222656 125.632812 213.625 126.484375 213.984375 127.351562 C 214.34375 128.222656 214.664062 129.105469 214.933594 130.007812 C 215.207031 130.90625 215.4375 131.820312 215.617188 132.742188 C 215.804688 133.664062 215.941406 134.59375 216.03125 135.53125 C 216.125 136.464844 216.171875 137.402344 216.171875 138.34375 Z M 216.171875 138.34375 " fill="#2980b9" class="color000 svgShape"></path></g></svg></g></svg>