<svg xmlns="http://www.w3.org/2000/svg" xmlns:xlink="http://www.w3.org/1999/xlink" zoomAndPan="magnify" preserveAspectRatio="xMidYMid meet" version="1.0" viewBox="3.57 120.48 368.58 134.3"><defs><clipPath id="id1"><path d="M 3.59375 120.480469 L 100.519531 120.480469 L 100.519531 254.730469 L 3.59375 254.730469 Z M 3.59375 120.480469 " clip-rule="nonzero"/></clipPath><clipPath id="id2"><path d="M 25.195312 181.652344 L 78.894531 181.652344 L 78.894531 235.355469 L 25.195312 235.355469 Z M 25.195312 181.652344 " clip-rule="nonzero"/></clipPath><clipPath id="id3"><path d="M 31.671875 188.132812 L 72.484375 188.132812 L 72.484375 228.945312 L 31.671875 228.945312 Z M 31.671875 188.132812 " clip-rule="nonzero"/></clipPath></defs><path fill="rgb(0%, 0%, 0%)" d="M 148.808594 155.761719 L 148.808594 207.113281 C 148.808594 207.75 148.835938 208.539062 148.894531 209.492188 C 148.960938 210.441406 149.132812 211.378906 149.414062 212.300781 C 149.703125 213.214844 150.128906 214.003906 150.699219 214.667969 C 151.273438 215.332031 152.070312 215.664062 153.089844 215.664062 C 156.191406 215.664062 158.476562 212.210938 159.9375 205.296875 L 163.453125 205.296875 C 162.75 209.296875 161.863281 212.453125 160.789062 214.769531 C 159.707031 217.078125 158.566406 218.835938 157.359375 220.042969 C 156.15625 221.246094 154.917969 222.023438 153.652344 222.367188 C 152.382812 222.722656 151.242188 222.898438 150.234375 222.898438 C 148.773438 222.898438 147.519531 222.644531 146.472656 222.136719 C 145.433594 221.625 144.546875 220.960938 143.816406 220.144531 C 143.085938 219.320312 142.5 218.367188 142.058594 217.289062 C 141.617188 216.207031 141.265625 215.0625 141.007812 213.859375 C 140.054688 216.332031 138.519531 218.457031 136.394531 220.234375 C 134.269531 222.011719 131.6875 222.898438 128.652344 222.898438 C 126.75 222.898438 124.828125 222.515625 122.898438 221.757812 C 120.964844 220.992188 119.21875 219.742188 117.664062 218 C 116.109375 216.257812 114.839844 214.011719 113.859375 211.25 C 112.878906 208.492188 112.390625 205.117188 112.390625 201.117188 C 112.390625 198.203125 112.722656 195.164062 113.382812 191.988281 C 114.054688 188.820312 115.117188 185.9375 116.570312 183.339844 C 118.03125 180.746094 119.902344 178.589844 122.179688 176.878906 C 124.464844 175.167969 127.222656 174.3125 130.453125 174.3125 C 131.210938 174.3125 132.019531 174.390625 132.875 174.542969 C 133.730469 174.699219 134.550781 174.96875 135.34375 175.351562 C 136.140625 175.738281 136.882812 176.257812 137.578125 176.921875 C 138.277344 177.585938 138.851562 178.394531 139.292969 179.347656 L 139.292969 157.097656 Z M 131.027344 215.664062 C 131.980469 215.664062 132.945312 215.394531 133.925781 214.855469 C 134.90625 214.320312 135.792969 213.59375 136.582031 212.675781 C 137.378906 211.757812 138.027344 210.660156 138.53125 209.390625 C 139.039062 208.125 139.292969 206.757812 139.292969 205.296875 L 139.292969 183.625 C 138.851562 182.609375 138.167969 181.675781 137.246094 180.816406 C 136.332031 179.960938 135.144531 179.535156 133.683594 179.535156 C 131.65625 179.535156 129.910156 180.21875 128.453125 181.582031 C 126.996094 182.945312 125.824219 184.660156 124.933594 186.722656 C 124.050781 188.78125 123.398438 191.035156 122.988281 193.472656 C 122.582031 195.90625 122.378906 198.234375 122.378906 200.453125 C 122.378906 205.902344 123.121094 209.800781 124.601562 212.144531 C 126.089844 214.492188 128.234375 215.664062 131.027344 215.664062 Z M 131.027344 215.664062 " fill-opacity="1" fill-rule="nonzero"/><path fill="rgb(0%, 0%, 0%)" d="M 169.34375 174.777344 L 169.34375 182.765625 C 170.101562 181.628906 170.847656 180.558594 171.578125 179.542969 C 172.308594 178.527344 173.117188 177.640625 174 176.878906 C 174.886719 176.113281 175.867188 175.492188 176.945312 175.019531 C 178.027344 174.550781 179.234375 174.3125 180.5625 174.3125 C 182.714844 174.3125 184.296875 174.867188 185.308594 175.972656 C 186.324219 177.078125 186.835938 178.425781 186.835938 180.007812 C 186.835938 180.960938 186.671875 181.753906 186.359375 182.386719 C 186.039062 183.023438 185.660156 183.53125 185.21875 183.914062 C 184.777344 184.289062 184.300781 184.5625 183.792969 184.722656 C 183.289062 184.878906 182.847656 184.953125 182.464844 184.953125 C 181.894531 184.953125 181.4375 184.828125 181.082031 184.578125 C 180.734375 184.320312 180.386719 184.054688 180.042969 183.769531 C 179.691406 183.484375 179.296875 183.214844 178.847656 182.964844 C 178.40625 182.707031 177.835938 182.574219 177.144531 182.574219 C 175.683594 182.574219 174.285156 183.085938 172.949219 184.101562 C 171.625 185.113281 170.421875 186.191406 169.34375 187.332031 L 169.34375 222.324219 L 159.832031 222.324219 L 159.832031 174.777344 Z M 169.34375 174.777344 " fill-opacity="1" fill-rule="nonzero"/><path fill="rgb(0%, 0%, 0%)" d="M 201.378906 174.777344 L 201.378906 207.113281 C 201.378906 207.75 201.414062 208.539062 201.480469 209.492188 C 201.546875 210.441406 201.71875 211.378906 202 212.300781 C 202.285156 213.214844 202.714844 214.003906 203.28125 214.667969 C 203.859375 215.332031 204.648438 215.664062 205.660156 215.664062 C 208.765625 215.664062 211.046875 212.210938 212.507812 205.296875 L 216.027344 205.296875 C 215.332031 209.296875 214.445312 212.453125 213.359375 214.769531 C 212.28125 217.078125 211.144531 218.835938 209.941406 220.042969 C 208.738281 221.246094 207.503906 222.023438 206.238281 222.367188 C 204.96875 222.722656 203.824219 222.898438 202.808594 222.898438 C 200.59375 222.898438 198.785156 222.46875 197.386719 221.617188 C 195.992188 220.761719 194.878906 219.667969 194.054688 218.339844 C 193.238281 217.007812 192.667969 215.515625 192.351562 213.871094 C 192.035156 212.21875 191.878906 210.628906 191.878906 209.105469 L 191.878906 174.777344 Z M 190.164062 161.09375 C 190.164062 159.382812 190.761719 157.894531 191.964844 156.625 C 193.175781 155.355469 194.667969 154.71875 196.445312 154.71875 C 198.15625 154.71875 199.644531 155.355469 200.902344 156.625 C 202.171875 157.894531 202.808594 159.382812 202.808594 161.09375 C 202.808594 162.863281 202.171875 164.351562 200.902344 165.5625 C 199.644531 166.765625 198.15625 167.363281 196.445312 167.363281 C 194.667969 167.363281 193.175781 166.765625 191.964844 165.5625 C 190.761719 164.351562 190.164062 162.863281 190.164062 161.09375 Z M 190.164062 161.09375 " fill-opacity="1" fill-rule="nonzero"/><path fill="rgb(0%, 0%, 0%)" d="M 222.011719 171.257812 L 222.011719 178.582031 C 223.222656 177.316406 224.632812 176.285156 226.25 175.496094 C 227.863281 174.707031 229.746094 174.3125 231.902344 174.3125 C 234.121094 174.3125 236.183594 174.789062 238.085938 175.738281 C 239.988281 176.683594 241.652344 178.125 243.074219 180.066406 C 244.503906 181.996094 245.632812 184.441406 246.449219 187.386719 C 247.273438 190.332031 247.6875 193.832031 247.6875 197.886719 C 247.6875 205.808594 246.199219 211.957031 243.21875 216.339844 C 240.238281 220.714844 236.277344 222.898438 231.339844 222.898438 C 229.242188 222.898438 227.449219 222.503906 225.960938 221.714844 C 224.472656 220.917969 223.15625 219.789062 222.011719 218.328125 L 222.011719 243.71875 L 212.410156 246.097656 L 212.410156 171.257812 Z M 228.582031 180.484375 C 227.179688 180.484375 225.929688 180.882812 224.824219 181.679688 C 223.714844 182.472656 222.777344 183.59375 222.011719 185.054688 L 222.011719 213.574219 C 222.902344 214.71875 223.902344 215.542969 225.011719 216.050781 C 226.121094 216.554688 227.21875 216.804688 228.296875 216.804688 C 229.878906 216.804688 231.273438 216.300781 232.476562 215.289062 C 233.679688 214.269531 234.707031 212.894531 235.5625 211.152344 C 236.417969 209.410156 237.070312 207.367188 237.511719 205.023438 C 237.960938 202.675781 238.1875 200.171875 238.1875 197.511719 C 238.1875 194.214844 237.882812 191.476562 237.277344 189.289062 C 236.671875 187.101562 235.894531 185.359375 234.945312 184.058594 C 233.992188 182.753906 232.945312 181.832031 231.804688 181.292969 C 230.667969 180.757812 229.59375 180.484375 228.582031 180.484375 Z M 228.582031 180.484375 " fill-opacity="1" fill-rule="nonzero"/><path fill="rgb(0%, 0%, 0%)" d="M 262.230469 171.257812 L 262.230469 178.582031 C 263.441406 177.316406 264.851562 176.285156 266.46875 175.496094 C 268.082031 174.707031 269.964844 174.3125 272.121094 174.3125 C 274.339844 174.3125 276.402344 174.789062 278.304688 175.738281 C 280.207031 176.683594 281.871094 178.125 283.292969 180.066406 C 284.722656 181.996094 285.847656 184.441406 286.667969 187.386719 C 287.492188 190.332031 287.90625 193.832031 287.90625 197.886719 C 287.90625 205.808594 286.417969 211.957031 283.4375 216.339844 C 280.457031 220.714844 276.496094 222.898438 271.558594 222.898438 C 269.460938 222.898438 267.667969 222.503906 266.179688 221.714844 C 264.691406 220.917969 263.375 219.789062 262.230469 218.328125 L 262.230469 243.71875 L 252.628906 246.097656 L 252.628906 171.257812 Z M 268.800781 180.484375 C 267.398438 180.484375 266.148438 180.882812 265.039062 181.679688 C 263.933594 182.472656 262.996094 183.59375 262.230469 185.054688 L 262.230469 213.574219 C 263.121094 214.71875 264.121094 215.542969 265.230469 216.050781 C 266.339844 216.554688 267.4375 216.804688 268.515625 216.804688 C 270.097656 216.804688 271.492188 216.300781 272.695312 215.289062 C 273.898438 214.269531 274.925781 212.894531 275.78125 211.152344 C 276.636719 209.410156 277.289062 207.367188 277.730469 205.023438 C 278.175781 202.675781 278.40625 200.171875 278.40625 197.511719 C 278.40625 194.214844 278.101562 191.476562 277.496094 189.289062 C 276.890625 187.101562 276.113281 185.359375 275.164062 184.058594 C 274.210938 182.753906 273.164062 181.832031 272.019531 181.292969 C 270.882812 180.757812 269.8125 180.484375 268.800781 180.484375 Z M 268.800781 180.484375 " fill-opacity="1" fill-rule="nonzero"/><path fill="rgb(0%, 0%, 0%)" d="M 302.449219 155.761719 L 302.449219 207.113281 C 302.449219 207.75 302.484375 208.539062 302.550781 209.492188 C 302.617188 210.441406 302.789062 211.378906 303.070312 212.300781 C 303.355469 213.214844 303.78125 214.003906 304.351562 214.667969 C 304.929688 215.332031 305.71875 215.664062 306.730469 215.664062 C 309.832031 215.664062 312.117188 212.210938 313.578125 205.296875 L 317.097656 205.296875 C 316.402344 209.296875 315.515625 212.453125 314.429688 214.769531 C 313.351562 217.078125 312.210938 218.835938 311.011719 220.042969 C 309.808594 221.246094 308.574219 222.023438 307.304688 222.367188 C 306.035156 222.722656 304.894531 222.898438 303.875 222.898438 C 301.664062 222.898438 299.855469 222.46875 298.457031 221.617188 C 297.0625 220.761719 295.949219 219.667969 295.125 218.339844 C 294.308594 217.007812 293.738281 215.515625 293.421875 213.871094 C 293.105469 212.21875 292.945312 210.628906 292.945312 209.105469 L 292.945312 157.097656 Z M 302.449219 155.761719 " fill-opacity="1" fill-rule="nonzero"/><path fill="rgb(0%, 0%, 0%)" d="M 322.988281 174.777344 L 322.988281 207.113281 C 322.988281 207.75 323.019531 208.539062 323.085938 209.492188 C 323.152344 210.441406 323.324219 211.378906 323.605469 212.300781 C 323.894531 213.214844 324.320312 214.003906 324.890625 214.667969 C 325.464844 215.332031 326.257812 215.664062 327.269531 215.664062 C 330.371094 215.664062 332.65625 212.210938 334.117188 205.296875 L 337.632812 205.296875 C 336.941406 209.296875 336.050781 212.453125 334.96875 214.769531 C 333.890625 217.078125 332.75 218.835938 331.550781 220.042969 C 330.347656 221.246094 329.109375 222.023438 327.84375 222.367188 C 326.574219 222.722656 325.433594 222.898438 324.414062 222.898438 C 322.203125 222.898438 320.394531 222.46875 318.992188 221.617188 C 317.601562 220.761719 316.488281 219.667969 315.664062 218.339844 C 314.84375 217.007812 314.277344 215.515625 313.960938 213.871094 C 313.640625 212.21875 313.484375 210.628906 313.484375 209.105469 L 313.484375 174.777344 Z M 311.769531 161.09375 C 311.769531 159.382812 312.371094 157.894531 313.574219 156.625 C 314.78125 155.355469 316.273438 154.71875 318.054688 154.71875 C 319.761719 154.71875 321.25 155.355469 322.511719 156.625 C 323.777344 157.894531 324.414062 159.382812 324.414062 161.09375 C 324.414062 162.863281 323.777344 164.351562 322.511719 165.5625 C 321.25 166.765625 319.761719 167.363281 318.054688 167.363281 C 316.273438 167.363281 314.78125 166.765625 313.574219 165.5625 C 312.371094 164.351562 311.769531 162.863281 311.769531 161.09375 Z M 311.769531 161.09375 " fill-opacity="1" fill-rule="nonzero"/><path fill="rgb(0%, 0%, 0%)" d="M 363.785156 186.667969 C 363.785156 191.109375 361.960938 194.820312 358.3125 197.796875 C 354.664062 200.769531 349.609375 202.605469 343.144531 203.308594 C 343.402344 205.847656 343.863281 207.90625 344.527344 209.492188 C 345.191406 211.078125 346 212.332031 346.949219 213.253906 C 347.902344 214.167969 348.992188 214.796875 350.222656 215.144531 C 351.464844 215.492188 352.75 215.664062 354.085938 215.664062 C 357.121094 215.664062 359.972656 214.875 362.636719 213.296875 C 365.296875 211.710938 367.453125 209.046875 369.109375 205.296875 L 372.148438 205.296875 C 371.324219 207.652344 370.179688 209.890625 368.722656 212.011719 C 367.265625 214.132812 365.558594 216 363.585938 217.621094 C 361.625 219.238281 359.5 220.519531 357.214844 221.472656 C 354.9375 222.421875 352.59375 222.898438 350.191406 222.898438 C 347.96875 222.898438 345.828125 222.515625 343.765625 221.757812 C 341.707031 220.992188 339.882812 219.742188 338.300781 218 C 336.710938 216.257812 335.429688 213.992188 334.449219 211.207031 C 333.46875 208.414062 332.976562 204.984375 332.976562 200.929688 C 332.976562 198.269531 333.277344 195.382812 333.875 192.277344 C 334.476562 189.175781 335.492188 186.289062 336.917969 183.625 C 338.347656 180.964844 340.214844 178.75 342.523438 176.976562 C 344.839844 175.203125 347.707031 174.3125 351.132812 174.3125 C 352.714844 174.3125 354.253906 174.488281 355.746094 174.832031 C 357.230469 175.179688 358.578125 175.8125 359.78125 176.734375 C 360.992188 177.648438 361.960938 178.902344 362.691406 180.484375 C 363.421875 182.074219 363.785156 184.132812 363.785156 186.667969 Z M 343.054688 199.601562 C 347.550781 198.902344 351.121094 197.316406 353.753906 194.84375 C 356.386719 192.375 357.703125 189.332031 357.703125 185.71875 C 357.703125 183.304688 357.289062 181.582031 356.464844 180.539062 C 355.636719 179.496094 354.464844 178.96875 352.945312 178.96875 C 351.292969 178.96875 349.847656 179.605469 348.609375 180.871094 C 347.375 182.132812 346.347656 183.765625 345.523438 185.761719 C 344.703125 187.761719 344.085938 189.980469 343.675781 192.421875 C 343.261719 194.863281 343.054688 197.257812 343.054688 199.601562 Z M 343.054688 199.601562 " fill-opacity="1" fill-rule="nonzero"/><g clip-path="url(#id1)"><path fill="rgb(0%, 0%, 0%)" d="M 100.472656 206.339844 C 100.472656 233.089844 78.785156 254.777344 52.023438 254.777344 C 25.261719 254.777344 3.566406 233.089844 3.566406 206.339844 C 3.566406 179.582031 52.023438 120.5 52.023438 120.5 C 52.023438 120.5 100.472656 179.582031 100.472656 206.339844 " fill-opacity="1" fill-rule="nonzero"/></g><g clip-path="url(#id2)"><path fill="rgb(100%, 100%, 100%)" d="M 78.894531 208.503906 C 78.894531 208.945312 78.882812 209.382812 78.863281 209.820312 C 78.839844 210.261719 78.808594 210.699219 78.765625 211.136719 C 78.722656 211.574219 78.667969 212.007812 78.605469 212.445312 C 78.539062 212.878906 78.464844 213.3125 78.378906 213.742188 C 78.292969 214.171875 78.195312 214.601562 78.089844 215.027344 C 77.984375 215.453125 77.867188 215.875 77.738281 216.296875 C 77.609375 216.71875 77.472656 217.136719 77.324219 217.550781 C 77.175781 217.964844 77.019531 218.375 76.851562 218.777344 C 76.683594 219.1875 76.503906 219.585938 76.316406 219.984375 C 76.128906 220.382812 75.929688 220.773438 75.722656 221.160156 C 75.515625 221.550781 75.300781 221.929688 75.074219 222.308594 C 74.847656 222.683594 74.613281 223.054688 74.371094 223.421875 C 74.125 223.785156 73.871094 224.144531 73.609375 224.5 C 73.347656 224.851562 73.078125 225.199219 72.800781 225.539062 C 72.519531 225.878906 72.234375 226.210938 71.9375 226.535156 C 71.644531 226.859375 71.339844 227.179688 71.03125 227.488281 C 70.71875 227.800781 70.402344 228.101562 70.074219 228.398438 C 69.75 228.695312 69.417969 228.980469 69.078125 229.257812 C 68.738281 229.539062 68.390625 229.808594 68.039062 230.070312 C 67.6875 230.332031 67.328125 230.585938 66.960938 230.828125 C 66.597656 231.074219 66.226562 231.308594 65.847656 231.535156 C 65.472656 231.761719 65.089844 231.976562 64.703125 232.183594 C 64.316406 232.390625 63.921875 232.589844 63.523438 232.777344 C 63.128906 232.964844 62.726562 233.140625 62.320312 233.308594 C 61.914062 233.476562 61.503906 233.636719 61.089844 233.785156 C 60.675781 233.933594 60.257812 234.070312 59.839844 234.199219 C 59.417969 234.324219 58.996094 234.441406 58.566406 234.546875 C 58.140625 234.65625 57.714844 234.75 57.28125 234.839844 C 56.851562 234.921875 56.417969 235 55.984375 235.0625 C 55.550781 235.128906 55.113281 235.179688 54.675781 235.222656 C 54.238281 235.269531 53.800781 235.300781 53.363281 235.320312 C 52.921875 235.34375 52.484375 235.355469 52.042969 235.355469 C 51.605469 235.355469 51.167969 235.34375 50.726562 235.320312 C 50.289062 235.300781 49.851562 235.269531 49.414062 235.222656 C 48.976562 235.179688 48.539062 235.128906 48.105469 235.0625 C 47.671875 235 47.238281 234.921875 46.804688 234.839844 C 46.375 234.75 45.949219 234.65625 45.519531 234.546875 C 45.09375 234.441406 44.671875 234.324219 44.25 234.199219 C 43.832031 234.070312 43.414062 233.933594 43 233.785156 C 42.585938 233.636719 42.175781 233.476562 41.769531 233.308594 C 41.363281 233.140625 40.960938 232.964844 40.566406 232.777344 C 40.167969 232.589844 39.773438 232.390625 39.386719 232.183594 C 39 231.976562 38.617188 231.761719 38.242188 231.535156 C 37.863281 231.308594 37.492188 231.074219 37.128906 230.828125 C 36.761719 230.585938 36.402344 230.332031 36.050781 230.070312 C 35.695312 229.808594 35.351562 229.539062 35.011719 229.257812 C 34.671875 228.980469 34.339844 228.695312 34.011719 228.398438 C 33.6875 228.101562 33.371094 227.800781 33.058594 227.488281 C 32.746094 227.179688 32.445312 226.859375 32.152344 226.535156 C 31.855469 226.210938 31.570312 225.878906 31.289062 225.539062 C 31.011719 225.199219 30.742188 224.851562 30.476562 224.5 C 30.214844 224.144531 29.964844 223.785156 29.71875 223.421875 C 29.476562 223.054688 29.242188 222.683594 29.015625 222.308594 C 28.789062 221.929688 28.570312 221.550781 28.363281 221.160156 C 28.15625 220.773438 27.960938 220.382812 27.773438 219.984375 C 27.585938 219.585938 27.40625 219.1875 27.238281 218.777344 C 27.070312 218.375 26.910156 217.964844 26.761719 217.550781 C 26.617188 217.136719 26.476562 216.71875 26.351562 216.296875 C 26.222656 215.875 26.105469 215.453125 26 215.027344 C 25.890625 214.601562 25.796875 214.171875 25.710938 213.742188 C 25.625 213.3125 25.550781 212.878906 25.484375 212.445312 C 25.421875 212.007812 25.367188 211.574219 25.324219 211.136719 C 25.28125 210.699219 25.25 210.261719 25.226562 209.820312 C 25.207031 209.382812 25.195312 208.945312 25.195312 208.503906 C 25.195312 208.0625 25.207031 207.625 25.226562 207.1875 C 25.25 206.746094 25.28125 206.308594 25.324219 205.871094 C 25.367188 205.433594 25.421875 205 25.484375 204.5625 C 25.550781 204.128906 25.625 203.695312 25.710938 203.265625 C 25.796875 202.835938 25.890625 202.40625 26 201.980469 C 26.105469 201.554688 26.222656 201.128906 26.351562 200.710938 C 26.476562 200.289062 26.617188 199.871094 26.761719 199.457031 C 26.910156 199.046875 27.070312 198.632812 27.238281 198.230469 C 27.40625 197.824219 27.585938 197.421875 27.773438 197.023438 C 27.960938 196.628906 28.15625 196.234375 28.363281 195.847656 C 28.570312 195.460938 28.789062 195.078125 29.015625 194.699219 C 29.242188 194.324219 29.476562 193.953125 29.71875 193.585938 C 29.964844 193.222656 30.214844 192.863281 30.476562 192.507812 C 30.742188 192.15625 31.011719 191.808594 31.289062 191.46875 C 31.570312 191.128906 31.855469 190.796875 32.152344 190.472656 C 32.445312 190.148438 32.746094 189.828125 33.058594 189.519531 C 33.371094 189.207031 33.6875 188.902344 34.011719 188.609375 C 34.339844 188.3125 34.671875 188.027344 35.011719 187.75 C 35.351562 187.46875 35.695312 187.199219 36.050781 186.9375 C 36.402344 186.675781 36.761719 186.421875 37.128906 186.179688 C 37.492188 185.933594 37.863281 185.699219 38.242188 185.472656 C 38.617188 185.25 39 185.03125 39.386719 184.824219 C 39.773438 184.617188 40.167969 184.417969 40.566406 184.230469 C 40.960938 184.042969 41.363281 183.863281 41.769531 183.699219 C 42.175781 183.53125 42.585938 183.371094 43 183.222656 C 43.414062 183.074219 43.832031 182.9375 44.25 182.808594 C 44.671875 182.683594 45.09375 182.566406 45.519531 182.457031 C 45.949219 182.351562 46.375 182.253906 46.804688 182.171875 C 47.238281 182.082031 47.671875 182.007812 48.105469 181.945312 C 48.539062 181.878906 48.976562 181.828125 49.414062 181.78125 C 49.851562 181.738281 50.289062 181.707031 50.726562 181.6875 C 51.167969 181.664062 51.605469 181.65625 52.042969 181.65625 C 52.484375 181.65625 52.921875 181.664062 53.363281 181.6875 C 53.800781 181.707031 54.238281 181.738281 54.675781 181.78125 C 55.113281 181.828125 55.550781 181.878906 55.984375 181.945312 C 56.417969 182.007812 56.851562 182.082031 57.28125 182.171875 C 57.714844 182.253906 58.140625 182.351562 58.566406 182.457031 C 58.996094 182.566406 59.417969 182.683594 59.839844 182.808594 C 60.257812 182.9375 60.675781 183.074219 61.089844 183.222656 C 61.503906 183.371094 61.914062 183.53125 62.320312 183.699219 C 62.726562 183.863281 63.128906 184.042969 63.523438 184.230469 C 63.921875 184.417969 64.316406 184.617188 64.703125 184.824219 C 65.089844 185.03125 65.472656 185.25 65.847656 185.472656 C 66.226562 185.699219 66.597656 185.933594 66.960938 186.179688 C 67.328125 186.421875 67.6875 186.675781 68.039062 186.9375 C 68.390625 187.199219 68.738281 187.46875 69.078125 187.75 C 69.417969 188.027344 69.75 188.3125 70.074219 188.609375 C 70.402344 188.902344 70.71875 189.207031 71.03125 189.519531 C 71.339844 189.828125 71.644531 190.148438 71.9375 190.472656 C 72.234375 190.796875 72.519531 191.128906 72.800781 191.46875 C 73.078125 191.808594 73.347656 192.15625 73.609375 192.507812 C 73.871094 192.863281 74.125 193.222656 74.371094 193.585938 C 74.613281 193.953125 74.847656 194.324219 75.074219 194.699219 C 75.300781 195.078125 75.515625 195.460938 75.722656 195.847656 C 75.929688 196.234375 76.128906 196.628906 76.316406 197.023438 C 76.503906 197.421875 76.683594 197.824219 76.851562 198.230469 C 77.019531 198.632812 77.175781 199.046875 77.324219 199.457031 C 77.472656 199.871094 77.609375 200.289062 77.738281 200.710938 C 77.867188 201.128906 77.984375 201.554688 78.089844 201.980469 C 78.195312 202.40625 78.292969 202.835938 78.378906 203.265625 C 78.464844 203.695312 78.539062 204.128906 78.605469 204.5625 C 78.667969 205 78.722656 205.433594 78.765625 205.871094 C 78.808594 206.308594 78.839844 206.746094 78.863281 207.1875 C 78.882812 207.625 78.894531 208.0625 78.894531 208.503906 Z M 78.894531 208.503906 " fill-opacity="1" fill-rule="nonzero"/></g><g clip-path="url(#id3)"><path fill="rgb(0%, 0%, 0%)" d="M 72.484375 208.539062 C 72.484375 209.207031 72.453125 209.875 72.386719 210.539062 C 72.320312 211.203125 72.222656 211.863281 72.09375 212.519531 C 71.960938 213.175781 71.800781 213.824219 71.605469 214.460938 C 71.414062 215.101562 71.1875 215.730469 70.933594 216.347656 C 70.675781 216.964844 70.390625 217.570312 70.074219 218.15625 C 69.761719 218.746094 69.417969 219.320312 69.046875 219.875 C 68.675781 220.429688 68.277344 220.96875 67.851562 221.484375 C 67.429688 222 66.980469 222.496094 66.507812 222.96875 C 66.035156 223.441406 65.539062 223.886719 65.023438 224.3125 C 64.507812 224.734375 63.972656 225.132812 63.417969 225.503906 C 62.859375 225.878906 62.289062 226.21875 61.699219 226.535156 C 61.109375 226.851562 60.503906 227.136719 59.886719 227.390625 C 59.269531 227.648438 58.640625 227.871094 58.003906 228.066406 C 57.363281 228.261719 56.714844 228.421875 56.058594 228.550781 C 55.40625 228.683594 54.746094 228.78125 54.078125 228.847656 C 53.414062 228.910156 52.746094 228.945312 52.078125 228.945312 C 51.410156 228.945312 50.742188 228.910156 50.078125 228.847656 C 49.414062 228.78125 48.753906 228.683594 48.097656 228.550781 C 47.441406 228.421875 46.792969 228.261719 46.15625 228.066406 C 45.515625 227.871094 44.886719 227.648438 44.269531 227.390625 C 43.652344 227.136719 43.050781 226.851562 42.460938 226.535156 C 41.871094 226.21875 41.296875 225.878906 40.742188 225.503906 C 40.1875 225.132812 39.648438 224.734375 39.132812 224.3125 C 38.617188 223.886719 38.125 223.441406 37.652344 222.96875 C 37.179688 222.496094 36.730469 222 36.304688 221.484375 C 35.882812 220.96875 35.484375 220.429688 35.113281 219.875 C 34.742188 219.320312 34.398438 218.746094 34.082031 218.15625 C 33.765625 217.570312 33.480469 216.964844 33.226562 216.347656 C 32.972656 215.730469 32.746094 215.101562 32.550781 214.460938 C 32.355469 213.824219 32.195312 213.175781 32.066406 212.519531 C 31.933594 211.863281 31.835938 211.203125 31.769531 210.539062 C 31.707031 209.875 31.671875 209.207031 31.671875 208.539062 C 31.671875 207.871094 31.707031 207.203125 31.769531 206.539062 C 31.835938 205.875 31.933594 205.210938 32.066406 204.558594 C 32.195312 203.902344 32.355469 203.253906 32.550781 202.617188 C 32.746094 201.976562 32.972656 201.347656 33.226562 200.730469 C 33.480469 200.113281 33.765625 199.507812 34.082031 198.917969 C 34.398438 198.328125 34.742188 197.757812 35.113281 197.203125 C 35.484375 196.644531 35.882812 196.109375 36.304688 195.59375 C 36.730469 195.078125 37.179688 194.582031 37.652344 194.109375 C 38.125 193.636719 38.617188 193.1875 39.132812 192.765625 C 39.648438 192.339844 40.1875 191.941406 40.742188 191.570312 C 41.296875 191.199219 41.871094 190.855469 42.460938 190.542969 C 43.050781 190.226562 43.652344 189.941406 44.269531 189.683594 C 44.886719 189.429688 45.515625 189.203125 46.15625 189.011719 C 46.792969 188.816406 47.441406 188.65625 48.097656 188.523438 C 48.753906 188.394531 49.414062 188.296875 50.078125 188.230469 C 50.742188 188.164062 51.410156 188.132812 52.078125 188.132812 C 52.746094 188.132812 53.414062 188.164062 54.078125 188.230469 C 54.746094 188.296875 55.40625 188.394531 56.058594 188.523438 C 56.714844 188.65625 57.363281 188.816406 58.003906 189.011719 C 58.640625 189.203125 59.269531 189.429688 59.886719 189.683594 C 60.503906 189.941406 61.109375 190.226562 61.699219 190.542969 C 62.289062 190.855469 62.859375 191.199219 63.417969 191.570312 C 63.972656 191.941406 64.507812 192.339844 65.023438 192.765625 C 65.539062 193.1875 66.035156 193.636719 66.507812 194.109375 C 66.980469 194.582031 67.429688 195.078125 67.851562 195.59375 C 68.277344 196.109375 68.675781 196.644531 69.046875 197.203125 C 69.417969 197.757812 69.761719 198.328125 70.074219 198.917969 C 70.390625 199.507812 70.675781 200.113281 70.933594 200.730469 C 71.1875 201.347656 71.414062 201.976562 71.605469 202.617188 C 71.800781 203.253906 71.960938 203.902344 72.09375 204.558594 C 72.222656 205.210938 72.320312 205.875 72.386719 206.539062 C 72.453125 207.203125 72.484375 207.871094 72.484375 208.539062 Z M 72.484375 208.539062 " fill-opacity="1" fill-rule="nonzero"/></g></svg>