<svg xmlns="http://www.w3.org/2000/svg" xmlns:xlink="http://www.w3.org/1999/xlink" width="500" zoomAndPan="magnify" viewBox="0 0 375 374.999991" height="500" preserveAspectRatio="xMidYMid meet" version="1.0"><defs><clipPath id="id1"><path d="M 52.160156 0 L 322.910156 0 L 322.910156 375 L 52.160156 375 Z M 52.160156 0 " clip-rule="nonzero"/></clipPath><clipPath id="id2"><path d="M 112.5 170.875 L 262.5 170.875 L 262.5 320.875 L 112.5 320.875 Z M 112.5 170.875 " clip-rule="nonzero"/></clipPath><clipPath id="id3"><path d="M 130.597656 188.96875 L 244.597656 188.96875 L 244.597656 302.96875 L 130.597656 302.96875 Z M 130.597656 188.96875 " clip-rule="nonzero"/></clipPath></defs><g clip-path="url(#id1)"><path fill="rgb(16.079712%, 50.19989%, 72.549438%)" d="M 322.777344 239.828125 C 322.777344 314.550781 262.199219 375.128906 187.441406 375.128906 C 112.683594 375.128906 52.085938 314.550781 52.085938 239.828125 C 52.085938 165.089844 187.441406 0.0546875 187.441406 0.0546875 C 187.441406 0.0546875 322.777344 165.089844 322.777344 239.828125 " fill-opacity="1" fill-rule="nonzero"/></g><g clip-path="url(#id2)"><path fill="rgb(100%, 100%, 100%)" d="M 262.5 245.875 C 262.5 247.101562 262.46875 248.328125 262.410156 249.554688 C 262.347656 250.78125 262.257812 252.003906 262.140625 253.226562 C 262.019531 254.445312 261.867188 255.664062 261.6875 256.878906 C 261.507812 258.09375 261.296875 259.300781 261.058594 260.503906 C 260.820312 261.710938 260.550781 262.90625 260.253906 264.097656 C 259.953125 265.289062 259.625 266.46875 259.269531 267.644531 C 258.914062 268.820312 258.527344 269.984375 258.117188 271.140625 C 257.703125 272.296875 257.261719 273.441406 256.789062 274.574219 C 256.320312 275.710938 255.824219 276.832031 255.300781 277.941406 C 254.773438 279.050781 254.222656 280.144531 253.644531 281.230469 C 253.066406 282.3125 252.460938 283.378906 251.828125 284.429688 C 251.199219 285.484375 250.542969 286.519531 249.859375 287.542969 C 249.179688 288.5625 248.472656 289.566406 247.742188 290.550781 C 247.007812 291.539062 246.253906 292.503906 245.476562 293.453125 C 244.695312 294.402344 243.894531 295.332031 243.070312 296.242188 C 242.246094 297.148438 241.402344 298.039062 240.53125 298.90625 C 239.664062 299.773438 238.777344 300.621094 237.867188 301.445312 C 236.957031 302.269531 236.027344 303.070312 235.078125 303.847656 C 234.128906 304.628906 233.164062 305.382812 232.175781 306.113281 C 231.191406 306.84375 230.1875 307.550781 229.167969 308.234375 C 228.148438 308.914062 227.109375 309.574219 226.058594 310.203125 C 225.003906 310.835938 223.9375 311.4375 222.855469 312.019531 C 221.773438 312.597656 220.675781 313.148438 219.566406 313.671875 C 218.457031 314.199219 217.335938 314.695312 216.203125 315.164062 C 215.066406 315.632812 213.921875 316.074219 212.765625 316.488281 C 211.609375 316.902344 210.445312 317.289062 209.269531 317.644531 C 208.097656 318 206.914062 318.328125 205.722656 318.625 C 204.53125 318.925781 203.335938 319.191406 202.132812 319.433594 C 200.929688 319.671875 199.71875 319.882812 198.503906 320.0625 C 197.289062 320.242188 196.074219 320.390625 194.851562 320.511719 C 193.628906 320.632812 192.40625 320.722656 191.179688 320.785156 C 189.953125 320.84375 188.726562 320.875 187.5 320.875 C 186.273438 320.875 185.046875 320.84375 183.820312 320.785156 C 182.59375 320.722656 181.371094 320.632812 180.148438 320.511719 C 178.925781 320.390625 177.710938 320.242188 176.496094 320.0625 C 175.28125 319.882812 174.070312 319.671875 172.867188 319.433594 C 171.664062 319.191406 170.46875 318.925781 169.277344 318.625 C 168.085938 318.328125 166.902344 318 165.730469 317.644531 C 164.554688 317.289062 163.390625 316.902344 162.234375 316.488281 C 161.078125 316.074219 159.933594 315.632812 158.796875 315.164062 C 157.664062 314.695312 156.542969 314.199219 155.433594 313.671875 C 154.324219 313.148438 153.226562 312.597656 152.144531 312.019531 C 151.0625 311.4375 149.996094 310.835938 148.941406 310.203125 C 147.890625 309.574219 146.851562 308.914062 145.832031 308.234375 C 144.8125 307.550781 143.808594 306.84375 142.824219 306.113281 C 141.835938 305.382812 140.871094 304.628906 139.921875 303.847656 C 138.972656 303.070312 138.042969 302.269531 137.132812 301.445312 C 136.222656 300.621094 135.335938 299.773438 134.46875 298.90625 C 133.597656 298.039062 132.753906 297.148438 131.929688 296.242188 C 131.105469 295.332031 130.304688 294.402344 129.523438 293.453125 C 128.746094 292.503906 127.992188 291.535156 127.257812 290.550781 C 126.527344 289.566406 125.820312 288.5625 125.140625 287.542969 C 124.457031 286.519531 123.800781 285.484375 123.171875 284.429688 C 122.539062 283.378906 121.933594 282.3125 121.355469 281.230469 C 120.777344 280.144531 120.226562 279.050781 119.699219 277.941406 C 119.175781 276.832031 118.679688 275.710938 118.210938 274.574219 C 117.738281 273.441406 117.296875 272.296875 116.882812 271.140625 C 116.46875 269.984375 116.085938 268.820312 115.730469 267.644531 C 115.375 266.46875 115.046875 265.289062 114.746094 264.097656 C 114.449219 262.90625 114.179688 261.710938 113.941406 260.503906 C 113.703125 259.300781 113.492188 258.09375 113.3125 256.878906 C 113.132812 255.664062 112.980469 254.445312 112.859375 253.226562 C 112.742188 252.003906 112.652344 250.78125 112.589844 249.554688 C 112.53125 248.328125 112.5 247.101562 112.5 245.875 C 112.5 244.644531 112.53125 243.417969 112.589844 242.195312 C 112.652344 240.96875 112.742188 239.742188 112.859375 238.523438 C 112.980469 237.300781 113.132812 236.082031 113.3125 234.867188 C 113.492188 233.65625 113.703125 232.445312 113.941406 231.242188 C 114.179688 230.039062 114.449219 228.839844 114.746094 227.648438 C 115.046875 226.460938 115.375 225.277344 115.730469 224.101562 C 116.085938 222.929688 116.46875 221.761719 116.882812 220.605469 C 117.296875 219.453125 117.738281 218.304688 118.210938 217.171875 C 118.679688 216.039062 119.175781 214.917969 119.699219 213.808594 C 120.226562 212.699219 120.777344 211.601562 121.355469 210.519531 C 121.933594 209.4375 122.539062 208.367188 123.171875 207.316406 C 123.800781 206.261719 124.457031 205.226562 125.140625 204.207031 C 125.820312 203.183594 126.527344 202.183594 127.257812 201.195312 C 127.992188 200.210938 128.746094 199.242188 129.523438 198.292969 C 130.304688 197.34375 131.105469 196.417969 131.929688 195.507812 C 132.753906 194.597656 133.597656 193.707031 134.46875 192.839844 C 135.335938 191.972656 136.222656 191.125 137.132812 190.300781 C 138.042969 189.476562 138.972656 188.675781 139.921875 187.898438 C 140.871094 187.121094 141.835938 186.363281 142.824219 185.632812 C 143.808594 184.902344 144.8125 184.195312 145.832031 183.511719 C 146.851562 182.832031 147.890625 182.175781 148.941406 181.542969 C 149.996094 180.914062 151.0625 180.308594 152.144531 179.730469 C 153.226562 179.152344 154.324219 178.597656 155.433594 178.074219 C 156.542969 177.550781 157.664062 177.050781 158.796875 176.582031 C 159.933594 176.113281 161.078125 175.671875 162.234375 175.257812 C 163.390625 174.84375 164.554688 174.460938 165.730469 174.101562 C 166.902344 173.746094 168.085938 173.417969 169.277344 173.121094 C 170.46875 172.824219 171.664062 172.554688 172.867188 172.316406 C 174.070312 172.074219 175.28125 171.867188 176.496094 171.6875 C 177.710938 171.503906 178.925781 171.355469 180.148438 171.234375 C 181.371094 171.113281 182.59375 171.023438 183.820312 170.964844 C 185.046875 170.902344 186.273438 170.875 187.5 170.875 C 188.726562 170.875 189.953125 170.902344 191.179688 170.964844 C 192.40625 171.023438 193.628906 171.113281 194.851562 171.234375 C 196.074219 171.355469 197.289062 171.503906 198.503906 171.6875 C 199.71875 171.867188 200.929688 172.074219 202.132812 172.316406 C 203.335938 172.554688 204.53125 172.824219 205.722656 173.121094 C 206.914062 173.417969 208.097656 173.746094 209.269531 174.101562 C 210.445312 174.460938 211.609375 174.84375 212.765625 175.257812 C 213.921875 175.671875 215.066406 176.113281 216.203125 176.582031 C 217.335938 177.050781 218.457031 177.550781 219.566406 178.074219 C 220.675781 178.597656 221.773438 179.152344 222.855469 179.730469 C 223.9375 180.308594 225.003906 180.914062 226.058594 181.542969 C 227.109375 182.175781 228.148438 182.832031 229.167969 183.511719 C 230.1875 184.195312 231.191406 184.902344 232.175781 185.632812 C 233.164062 186.363281 234.128906 187.121094 235.078125 187.898438 C 236.027344 188.675781 236.957031 189.476562 237.867188 190.300781 C 238.777344 191.125 239.664062 191.972656 240.53125 192.839844 C 241.402344 193.707031 242.246094 194.597656 243.070312 195.507812 C 243.894531 196.417969 244.695312 197.34375 245.476562 198.292969 C 246.253906 199.242188 247.007812 200.210938 247.742188 201.195312 C 248.472656 202.183594 249.179688 203.183594 249.859375 204.207031 C 250.542969 205.226562 251.199219 206.261719 251.828125 207.316406 C 252.460938 208.367188 253.066406 209.4375 253.644531 210.519531 C 254.222656 211.601562 254.773438 212.699219 255.300781 213.808594 C 255.824219 214.917969 256.320312 216.039062 256.789062 217.171875 C 257.261719 218.304688 257.703125 219.453125 258.117188 220.605469 C 258.527344 221.761719 258.914062 222.929688 259.269531 224.101562 C 259.625 225.277344 259.953125 226.460938 260.253906 227.648438 C 260.550781 228.839844 260.820312 230.039062 261.058594 231.242188 C 261.296875 232.445312 261.507812 233.65625 261.6875 234.867188 C 261.867188 236.082031 262.019531 237.300781 262.140625 238.523438 C 262.257812 239.742188 262.347656 240.96875 262.410156 242.195312 C 262.46875 243.417969 262.5 244.644531 262.5 245.875 Z M 262.5 245.875 " fill-opacity="1" fill-rule="nonzero"/></g><g clip-path="url(#id3)"><path fill="rgb(16.079712%, 50.19989%, 72.549438%)" d="M 244.597656 245.96875 C 244.597656 247.835938 244.503906 249.699219 244.320312 251.558594 C 244.140625 253.414062 243.867188 255.257812 243.5 257.089844 C 243.136719 258.921875 242.683594 260.730469 242.140625 262.515625 C 241.601562 264.304688 240.972656 266.058594 240.257812 267.785156 C 239.542969 269.507812 238.746094 271.195312 237.867188 272.839844 C 236.984375 274.484375 236.027344 276.085938 234.992188 277.636719 C 233.953125 279.191406 232.84375 280.6875 231.65625 282.128906 C 230.472656 283.574219 229.222656 284.957031 227.902344 286.277344 C 226.582031 287.59375 225.199219 288.847656 223.757812 290.03125 C 222.3125 291.214844 220.816406 292.328125 219.265625 293.363281 C 217.710938 294.402344 216.113281 295.359375 214.464844 296.238281 C 212.820312 297.121094 211.132812 297.917969 209.410156 298.632812 C 207.683594 299.347656 205.929688 299.972656 204.144531 300.515625 C 202.355469 301.058594 200.546875 301.511719 198.714844 301.875 C 196.886719 302.238281 195.042969 302.511719 193.183594 302.695312 C 191.324219 302.878906 189.464844 302.96875 187.597656 302.96875 C 185.730469 302.96875 183.867188 302.878906 182.007812 302.695312 C 180.152344 302.511719 178.308594 302.238281 176.476562 301.875 C 174.644531 301.511719 172.835938 301.058594 171.050781 300.515625 C 169.265625 299.972656 167.507812 299.347656 165.785156 298.632812 C 164.058594 297.917969 162.375 297.121094 160.726562 296.238281 C 159.082031 295.359375 157.480469 294.402344 155.929688 293.363281 C 154.375 292.328125 152.878906 291.214844 151.4375 290.03125 C 149.992188 288.847656 148.613281 287.59375 147.292969 286.277344 C 145.972656 284.957031 144.71875 283.574219 143.535156 282.128906 C 142.351562 280.6875 141.238281 279.191406 140.203125 277.636719 C 139.164062 276.085938 138.207031 274.484375 137.328125 272.839844 C 136.445312 271.195312 135.648438 269.507812 134.933594 267.785156 C 134.222656 266.058594 133.59375 264.304688 133.050781 262.515625 C 132.507812 260.730469 132.054688 258.921875 131.691406 257.089844 C 131.328125 255.257812 131.054688 253.414062 130.871094 251.558594 C 130.6875 249.699219 130.597656 247.835938 130.597656 245.96875 C 130.597656 244.101562 130.6875 242.242188 130.871094 240.382812 C 131.054688 238.527344 131.328125 236.679688 131.691406 234.851562 C 132.054688 233.019531 132.507812 231.210938 133.050781 229.425781 C 133.59375 227.636719 134.222656 225.882812 134.933594 224.15625 C 135.648438 222.433594 136.445312 220.746094 137.328125 219.101562 C 138.207031 217.453125 139.164062 215.855469 140.203125 214.304688 C 141.238281 212.75 142.351562 211.253906 143.535156 209.808594 C 144.71875 208.367188 145.972656 206.984375 147.292969 205.664062 C 148.613281 204.34375 149.992188 203.09375 151.4375 201.910156 C 152.878906 200.722656 154.375 199.613281 155.929688 198.578125 C 157.480469 197.539062 159.082031 196.582031 160.726562 195.699219 C 162.375 194.820312 164.058594 194.023438 165.785156 193.308594 C 167.507812 192.59375 169.265625 191.964844 171.050781 191.425781 C 172.835938 190.882812 174.644531 190.429688 176.476562 190.066406 C 178.308594 189.703125 180.152344 189.429688 182.007812 189.246094 C 183.867188 189.0625 185.730469 188.96875 187.597656 188.96875 C 189.464844 188.96875 191.324219 189.0625 193.183594 189.246094 C 195.042969 189.429688 196.886719 189.703125 198.714844 190.066406 C 200.546875 190.429688 202.355469 190.882812 204.144531 191.425781 C 205.929688 191.964844 207.683594 192.59375 209.410156 193.308594 C 211.132812 194.023438 212.820312 194.820312 214.464844 195.699219 C 216.113281 196.582031 217.710938 197.539062 219.265625 198.578125 C 220.816406 199.613281 222.3125 200.722656 223.757812 201.910156 C 225.199219 203.09375 226.582031 204.34375 227.902344 205.664062 C 229.222656 206.984375 230.472656 208.367188 231.65625 209.808594 C 232.84375 211.253906 233.953125 212.75 234.992188 214.304688 C 236.027344 215.855469 236.984375 217.453125 237.867188 219.101562 C 238.746094 220.746094 239.542969 222.433594 240.257812 224.15625 C 240.972656 225.882812 241.601562 227.636719 242.140625 229.425781 C 242.683594 231.210938 243.136719 233.019531 243.5 234.851562 C 243.867188 236.679688 244.140625 238.527344 244.320312 240.382812 C 244.503906 242.242188 244.597656 244.101562 244.597656 245.96875 Z M 244.597656 245.96875 " fill-opacity="1" fill-rule="nonzero"/></g></svg>